{
	"patcher" : 	{
		"fileversion" : 1,
		"appversion" : 		{
			"major" : 7,
			"minor" : 3,
			"revision" : 4,
			"architecture" : "x86",
			"modernui" : 1
		}
,
		"rect" : [ 181.0, 139.0, 1049.0, 654.0 ],
		"editing_bgcolor" : [ 0.9, 0.9, 0.9, 1.0 ],
		"bglocked" : 0,
		"openinpresentation" : 0,
		"default_fontsize" : 12.0,
		"default_fontface" : 0,
		"default_fontname" : "Arial",
		"gridonopen" : 1,
		"gridsize" : [ 15.0, 15.0 ],
		"gridsnaponopen" : 1,
		"objectsnaponopen" : 1,
		"statusbarvisible" : 2,
		"toolbarvisible" : 1,
		"lefttoolbarpinned" : 0,
		"toptoolbarpinned" : 0,
		"righttoolbarpinned" : 0,
		"bottomtoolbarpinned" : 0,
		"toolbars_unpinned_last_save" : 0,
		"tallnewobj" : 0,
		"boxanimatetime" : 200,
		"enablehscroll" : 1,
		"enablevscroll" : 1,
		"devicewidth" : 0.0,
		"description" : "",
		"digest" : "",
		"tags" : "",
		"style" : "",
		"subpatcher_template" : "",
		"boxes" : [ 			{
				"box" : 				{
					"id" : "obj-30",
					"maxclass" : "comment",
					"numinlets" : 1,
					"numoutlets" : 0,
					"patching_rect" : [ 1434.0, 112.0, 150.0, 20.0 ],
					"style" : "",
					"text" : "Height"
				}

			}
, 			{
				"box" : 				{
					"id" : "obj-28",
					"maxclass" : "comment",
					"numinlets" : 1,
					"numoutlets" : 0,
					"patching_rect" : [ 948.0, 104.0, 150.0, 20.0 ],
					"style" : "",
					"text" : "Blue"
				}

			}
, 			{
				"box" : 				{
					"id" : "obj-26",
					"maxclass" : "comment",
					"numinlets" : 1,
					"numoutlets" : 0,
					"patching_rect" : [ 547.0, 104.0, 150.0, 20.0 ],
					"style" : "",
					"text" : "Green"
				}

			}
, 			{
				"box" : 				{
					"id" : "obj-24",
					"maxclass" : "comment",
					"numinlets" : 1,
					"numoutlets" : 0,
					"patching_rect" : [ 117.0, 92.0, 150.0, 20.0 ],
					"style" : "",
					"text" : "Red"
				}

			}
, 			{
				"box" : 				{
					"id" : "obj-22",
					"maxclass" : "newobj",
					"numinlets" : 2,
					"numoutlets" : 1,
					"outlettype" : [ "" ],
					"patching_rect" : [ 696.0, 515.0, 29.5, 22.0 ],
					"style" : "",
					"text" : "+"
				}

			}
, 			{
				"box" : 				{
					"id" : "obj-21",
					"maxclass" : "newobj",
					"numinlets" : 2,
					"numoutlets" : 1,
					"outlettype" : [ "" ],
					"patching_rect" : [ 905.0, 438.0, 29.5, 22.0 ],
					"style" : "",
					"text" : "+"
				}

			}
, 			{
				"box" : 				{
					"code" : "val1 = in1.a;\r\nval2 = in2.a;\r\nvalfinal = 0.;\r\nxamount = xfade.a;\r\nop = ops.a;\r\n\r\n//check ops list\r\nif(op == 0){ //pass left\r\n\tvalfinal = val1;\r\n}\r\n\r\nif(op == 1){ //pass right\r\n\tvalfinal = val2;\r\n}\r\n\r\nelse if(op == 2){ //add\r\n\tvalfinal = val1 + val2;\r\n}\r\n\r\nelse if(op == 3){ //subtract\r\n\tvalfinal = val1 - val2;\r\n}\r\n\r\nelse if(op == 4){ //multiply\r\n\tvalfinal = val1 * val2;\r\n}\r\n\r\nelse if(op == 5){ //divide\r\n\tvalfinal = val1 / val2;\r\n}\r\n\r\nelse if(op == 6){ //min\r\n\tif(val1 < val2) {\r\n\t\tvalfinal = val1;\r\n\t}\r\n\telse {\r\n\t\tvalfinal = val2;\r\n\t}\r\n}\r\n\r\nelse if(op == 7){ //max\r\n\tif(val1 > val2) {\r\n\t\tvalfinal = val1;\r\n\t} else {\r\n\t\tvalfinal = val2;\r\n\t}\r\n}\r\n\r\nelse if(op == 8){ //xfade\r\n\tvalfinal = (val1 * xamount) + (val2 * (1. - xamount));\r\n}\r\n\r\n//clamp to [0.,1.]\r\nif(valfinal < 0) { valfinal = 0;}\r\nif(valfinal > 1) { valfinal = 1;}\r\n\r\nout1 = vec(0., 0., 0., valfinal);",
					"fontface" : 0,
					"fontname" : "Arial",
					"fontsize" : 12.0,
					"id" : "obj-20",
					"maxclass" : "codebox",
					"numinlets" : 2,
					"numoutlets" : 1,
					"outlettype" : [ "" ],
					"patching_rect" : [ 1342.0, 133.0, 426.0, 265.0 ],
					"style" : ""
				}

			}
, 			{
				"box" : 				{
					"code" : "val1 = in1.b;\r\nval2 = in2.b;\r\nvalfinal = 0.;\r\nxamount = xfade.b;\r\nop = ops.b;\r\n\r\n//check ops list\r\nif(op == 0){ //pass left\r\n\tvalfinal = val1;\r\n}\r\n\r\nif(op == 1){ //pass right\r\n\tvalfinal = val2;\r\n}\r\n\r\nelse if(op == 2){ //add\r\n\tvalfinal = val1 + val2;\r\n}\r\n\r\nelse if(op == 3){ //subtract\r\n\tvalfinal = val1 - val2;\r\n}\r\n\r\nelse if(op == 4){ //multiply\r\n\tvalfinal = val1 * val2;\r\n}\r\n\r\nelse if(op == 5){ //divide\r\n\tvalfinal = val1 / val2;\r\n}\r\n\r\nelse if(op == 6){ //min\r\n\tif(val1 < val2) {\r\n\t\tvalfinal = val1;\r\n\t}\r\n\telse {\r\n\t\tvalfinal = val2;\r\n\t}\r\n}\r\n\r\nelse if(op == 7){ //max\r\n\tif(val1 > val2) {\r\n\t\tvalfinal = val1;\r\n\t} else {\r\n\t\tvalfinal = val2;\r\n\t}\r\n}\r\n\r\nelse if(op == 8){ //xfade\r\n\tvalfinal = (val1 * xamount) + (val2 * (1. - xamount));\r\n}\r\n\r\n//clamp to [0.,1.]\r\nif(valfinal < 0) { valfinal = 0;}\r\nif(valfinal > 1) { valfinal = 1;}\r\n\r\nout1 = vec(0., 0., valfinal, 0.);",
					"fontface" : 0,
					"fontname" : "Arial",
					"fontsize" : 12.0,
					"id" : "obj-19",
					"maxclass" : "codebox",
					"numinlets" : 2,
					"numoutlets" : 1,
					"outlettype" : [ "" ],
					"patching_rect" : [ 905.0, 133.0, 426.0, 265.0 ],
					"style" : ""
				}

			}
, 			{
				"box" : 				{
					"code" : "val1 = in1.g;\r\nval2 = in2.g;\r\nvalfinal = 0.;\r\nxamount = xfade.g;\r\nop = ops.g;\r\n\r\n//check ops list\r\nif(op == 0){ //pass left\r\n\tvalfinal = val1;\r\n}\r\n\r\nif(op == 1){ //pass right\r\n\tvalfinal = val2;\r\n}\r\n\r\nelse if(op == 2){ //add\r\n\tvalfinal = val1 + val2;\r\n}\r\n\r\nelse if(op == 3){ //subtract\r\n\tvalfinal = val1 - val2;\r\n}\r\n\r\nelse if(op == 4){ //multiply\r\n\tvalfinal = val1 * val2;\r\n}\r\n\r\nelse if(op == 5){ //divide\r\n\tvalfinal = val1 / val2;\r\n}\r\n\r\nelse if(op == 6){ //min\r\n\tif(val1 < val2) {\r\n\t\tvalfinal = val1;\r\n\t}\r\n\telse {\r\n\t\tvalfinal = val2;\r\n\t}\r\n}\r\n\r\nelse if(op == 7){ //max\r\n\tif(val1 > val2) {\r\n\t\tvalfinal = val1;\r\n\t} else {\r\n\t\tvalfinal = val2;\r\n\t}\r\n}\r\n\r\nelse if(op == 8){ //xfade\r\n\tvalfinal = (val1 * xamount) + (val2 * (1. - xamount));\r\n}\r\n\r\n//clamp to [0.,1.]\r\nif(valfinal < 0) { valfinal = 0;}\r\nif(valfinal > 1) { valfinal = 1;}\r\n\r\nout1 = vec(0., valfinal, 0., 0.);",
					"fontface" : 0,
					"fontname" : "Arial",
					"fontsize" : 12.0,
					"id" : "obj-18",
					"maxclass" : "codebox",
					"numinlets" : 2,
					"numoutlets" : 1,
					"outlettype" : [ "" ],
					"patching_rect" : [ 472.0, 133.0, 426.0, 265.0 ],
					"style" : ""
				}

			}
, 			{
				"box" : 				{
					"id" : "obj-17",
					"maxclass" : "newobj",
					"numinlets" : 2,
					"numoutlets" : 1,
					"outlettype" : [ "" ],
					"patching_rect" : [ 461.5, 438.0, 29.5, 22.0 ],
					"style" : "",
					"text" : "+"
				}

			}
, 			{
				"box" : 				{
					"id" : "obj-16",
					"maxclass" : "newobj",
					"numinlets" : 0,
					"numoutlets" : 1,
					"outlettype" : [ "" ],
					"patching_rect" : [ 531.0, 14.0, 131.0, 22.0 ],
					"style" : "",
					"text" : "param xfade 0. 0. 0. 0."
				}

			}
, 			{
				"box" : 				{
					"code" : "val1 = in1.r;\r\nval2 = in2.r;\r\nvalfinal = 0.;\r\nxamount = xfade.r;\r\nop = ops.r;\r\n\r\n//check ops list\r\nif(op == 0){ //pass left\r\n\tvalfinal = val1;\r\n}\r\n\r\nif(op == 1){ //pass right\r\n\tvalfinal = val2;\r\n}\r\n\r\nelse if(op == 2){ //add\r\n\tvalfinal = val1 + val2;\r\n}\r\n\r\nelse if(op == 3){ //subtract\r\n\tvalfinal = val1 - val2;\r\n}\r\n\r\nelse if(op == 4){ //multiply\r\n\tvalfinal = val1 * val2;\r\n}\r\n\r\nelse if(op == 5){ //divide\r\n\tvalfinal = val1 / val2;\r\n}\r\n\r\nelse if(op == 6){ //min\r\n\tif(val1 < val2) {\r\n\t\tvalfinal = val1;\r\n\t}\r\n\telse {\r\n\t\tvalfinal = val2;\r\n\t}\r\n}\r\n\r\nelse if(op == 7){ //max\r\n\tif(val1 > val2) {\r\n\t\tvalfinal = val1;\r\n\t} else {\r\n\t\tvalfinal = val2;\r\n\t}\r\n}\r\n\r\nelse if(op == 8){ //xfade\r\n\tvalfinal = (val1 * xamount) + (val2 * (1. - xamount));\r\n}\r\n\r\n//clamp to [0.,1.]\r\nif(valfinal < 0) { valfinal = 0;}\r\nif(valfinal > 1) { valfinal = 1;}\r\n\r\nout1 = vec(valfinal, 0., 0., 0.);",
					"fontface" : 0,
					"fontname" : "Arial",
					"fontsize" : 12.0,
					"id" : "obj-14",
					"maxclass" : "codebox",
					"numinlets" : 2,
					"numoutlets" : 1,
					"outlettype" : [ "" ],
					"patching_rect" : [ 31.0, 133.0, 426.0, 265.0 ],
					"style" : ""
				}

			}
, 			{
				"box" : 				{
					"id" : "obj-5",
					"maxclass" : "newobj",
					"numinlets" : 0,
					"numoutlets" : 1,
					"outlettype" : [ "" ],
					"patching_rect" : [ 394.0, 14.0, 121.0, 22.0 ],
					"style" : "",
					"text" : "param ops 0. 0. 0. 0."
				}

			}
, 			{
				"box" : 				{
					"id" : "obj-1",
					"maxclass" : "newobj",
					"numinlets" : 0,
					"numoutlets" : 1,
					"outlettype" : [ "" ],
					"patching_rect" : [ 31.0, 14.0, 30.0, 22.0 ],
					"style" : "",
					"text" : "in 1"
				}

			}
, 			{
				"box" : 				{
					"id" : "obj-2",
					"maxclass" : "newobj",
					"numinlets" : 0,
					"numoutlets" : 1,
					"outlettype" : [ "" ],
					"patching_rect" : [ 296.5, 14.0, 30.0, 22.0 ],
					"style" : "",
					"text" : "in 2"
				}

			}
, 			{
				"box" : 				{
					"id" : "obj-4",
					"maxclass" : "newobj",
					"numinlets" : 1,
					"numoutlets" : 0,
					"patching_rect" : [ 696.0, 554.0, 37.0, 22.0 ],
					"style" : "",
					"text" : "out 1"
				}

			}
 ],
		"lines" : [ 			{
				"patchline" : 				{
					"destination" : [ "obj-14", 0 ],
					"midpoints" : [ 40.5, 39.0, 40.5, 39.0 ],
					"order" : 3,
					"source" : [ "obj-1", 0 ]
				}

			}
, 			{
				"patchline" : 				{
					"destination" : [ "obj-18", 0 ],
					"midpoints" : [ 40.5, 78.0, 481.5, 78.0 ],
					"order" : 2,
					"source" : [ "obj-1", 0 ]
				}

			}
, 			{
				"patchline" : 				{
					"destination" : [ "obj-19", 0 ],
					"midpoints" : [ 40.5, 78.0, 914.5, 78.0 ],
					"order" : 1,
					"source" : [ "obj-1", 0 ]
				}

			}
, 			{
				"patchline" : 				{
					"destination" : [ "obj-20", 0 ],
					"midpoints" : [ 40.5, 78.0, 1351.5, 78.0 ],
					"order" : 0,
					"source" : [ "obj-1", 0 ]
				}

			}
, 			{
				"patchline" : 				{
					"destination" : [ "obj-17", 0 ],
					"source" : [ "obj-14", 0 ]
				}

			}
, 			{
				"patchline" : 				{
					"destination" : [ "obj-22", 0 ],
					"source" : [ "obj-17", 0 ]
				}

			}
, 			{
				"patchline" : 				{
					"destination" : [ "obj-17", 1 ],
					"source" : [ "obj-18", 0 ]
				}

			}
, 			{
				"patchline" : 				{
					"destination" : [ "obj-21", 0 ],
					"source" : [ "obj-19", 0 ]
				}

			}
, 			{
				"patchline" : 				{
					"destination" : [ "obj-14", 1 ],
					"midpoints" : [ 306.0, 120.0, 447.5, 120.0 ],
					"order" : 3,
					"source" : [ "obj-2", 0 ]
				}

			}
, 			{
				"patchline" : 				{
					"destination" : [ "obj-18", 1 ],
					"midpoints" : [ 306.0, 90.0, 888.5, 90.0 ],
					"order" : 2,
					"source" : [ "obj-2", 0 ]
				}

			}
, 			{
				"patchline" : 				{
					"destination" : [ "obj-19", 1 ],
					"midpoints" : [ 306.0, 90.0, 1321.5, 90.0 ],
					"order" : 1,
					"source" : [ "obj-2", 0 ]
				}

			}
, 			{
				"patchline" : 				{
					"destination" : [ "obj-20", 1 ],
					"midpoints" : [ 306.0, 90.0, 1758.5, 90.0 ],
					"order" : 0,
					"source" : [ "obj-2", 0 ]
				}

			}
, 			{
				"patchline" : 				{
					"destination" : [ "obj-21", 1 ],
					"source" : [ "obj-20", 0 ]
				}

			}
, 			{
				"patchline" : 				{
					"destination" : [ "obj-22", 1 ],
					"source" : [ "obj-21", 0 ]
				}

			}
, 			{
				"patchline" : 				{
					"destination" : [ "obj-4", 0 ],
					"source" : [ "obj-22", 0 ]
				}

			}
 ]
	}

}
