{
	"patcher" : 	{
		"fileversion" : 1,
		"appversion" : 		{
			"major" : 7,
			"minor" : 3,
			"revision" : 4,
			"architecture" : "x86",
			"modernui" : 1
		}
,
		"rect" : [ 421.0, 184.0, 640.0, 480.0 ],
		"bglocked" : 0,
		"openinpresentation" : 1,
		"default_fontsize" : 12.0,
		"default_fontface" : 0,
		"default_fontname" : "Arial",
		"gridonopen" : 1,
		"gridsize" : [ 15.0, 15.0 ],
		"gridsnaponopen" : 1,
		"objectsnaponopen" : 1,
		"statusbarvisible" : 2,
		"toolbarvisible" : 1,
		"lefttoolbarpinned" : 0,
		"toptoolbarpinned" : 0,
		"righttoolbarpinned" : 0,
		"bottomtoolbarpinned" : 0,
		"toolbars_unpinned_last_save" : 0,
		"tallnewobj" : 0,
		"boxanimatetime" : 200,
		"enablehscroll" : 1,
		"enablevscroll" : 1,
		"devicewidth" : 0.0,
		"description" : "",
		"digest" : "",
		"tags" : "",
		"style" : "",
		"subpatcher_template" : "",
		"boxes" : [ 			{
				"box" : 				{
					"id" : "obj-15",
					"maxclass" : "comment",
					"numinlets" : 1,
					"numoutlets" : 0,
					"patching_rect" : [ 157.0, 182.0, 150.0, 20.0 ],
					"presentation" : 1,
					"presentation_rect" : [ 6.0, 3.0, 150.0, 20.0 ],
					"style" : "",
					"text" : "f3.fx.height-greyscale"
				}

			}
, 			{
				"box" : 				{
					"comment" : "Effect Preview Out",
					"id" : "obj-11",
					"index" : 0,
					"maxclass" : "outlet",
					"numinlets" : 1,
					"numoutlets" : 0,
					"patching_rect" : [ 412.0, 353.0, 30.0, 30.0 ],
					"style" : ""
				}

			}
, 			{
				"box" : 				{
					"comment" : "Sampled Data Texture Out",
					"id" : "obj-10",
					"index" : 0,
					"maxclass" : "outlet",
					"numinlets" : 1,
					"numoutlets" : 0,
					"patching_rect" : [ 227.0, 353.0, 30.0, 30.0 ],
					"style" : ""
				}

			}
, 			{
				"box" : 				{
					"id" : "obj-9",
					"maxclass" : "newobj",
					"numinlets" : 2,
					"numoutlets" : 2,
					"outlettype" : [ "jit_gl_texture", "" ],
					"patching_rect" : [ 227.0, 214.0, 206.0, 22.0 ],
					"style" : "",
					"text" : "jit.gl.pix #1 @gen f3.fxcombine.genjit"
				}

			}
, 			{
				"box" : 				{
					"id" : "obj-8",
					"maxclass" : "newobj",
					"numinlets" : 1,
					"numoutlets" : 3,
					"outlettype" : [ "", "", "" ],
					"patching_rect" : [ 459.0, 36.0, 423.0, 22.0 ],
					"saved_object_attributes" : 					{
						"initial" : [ 0.299, 0.587, 0.114, 0.0 ],
						"parameter_enable" : 0
					}
,
					"style" : "",
					"text" : "pattr luma_scale @bindto luma-pix::luma_scale @initial 0.299 0.587 0.114 0.",
					"varname" : "luma_scale"
				}

			}
, 			{
				"box" : 				{
					"id" : "obj-7",
					"maxclass" : "newobj",
					"numinlets" : 1,
					"numoutlets" : 2,
					"outlettype" : [ "", "" ],
					"patching_rect" : [ 42.0, 69.0, 55.0, 22.0 ],
					"style" : "",
					"text" : "pattrhub"
				}

			}
, 			{
				"box" : 				{
					"id" : "obj-4",
					"maxclass" : "newobj",
					"numinlets" : 1,
					"numoutlets" : 2,
					"outlettype" : [ "jit_gl_texture", "" ],
					"patcher" : 					{
						"fileversion" : 1,
						"appversion" : 						{
							"major" : 7,
							"minor" : 3,
							"revision" : 4,
							"architecture" : "x86",
							"modernui" : 1
						}
,
						"rect" : [ 59.0, 104.0, 600.0, 450.0 ],
						"editing_bgcolor" : [ 0.9, 0.9, 0.9, 1.0 ],
						"bglocked" : 0,
						"openinpresentation" : 0,
						"default_fontsize" : 12.0,
						"default_fontface" : 0,
						"default_fontname" : "Arial",
						"gridonopen" : 1,
						"gridsize" : [ 15.0, 15.0 ],
						"gridsnaponopen" : 1,
						"objectsnaponopen" : 1,
						"statusbarvisible" : 2,
						"toolbarvisible" : 1,
						"lefttoolbarpinned" : 0,
						"toptoolbarpinned" : 0,
						"righttoolbarpinned" : 0,
						"bottomtoolbarpinned" : 0,
						"toolbars_unpinned_last_save" : 0,
						"tallnewobj" : 0,
						"boxanimatetime" : 200,
						"enablehscroll" : 1,
						"enablevscroll" : 1,
						"devicewidth" : 0.0,
						"description" : "",
						"digest" : "",
						"tags" : "",
						"style" : "",
						"subpatcher_template" : "",
						"boxes" : [ 							{
								"box" : 								{
									"id" : "obj-7",
									"maxclass" : "newobj",
									"numinlets" : 4,
									"numoutlets" : 1,
									"outlettype" : [ "" ],
									"patching_rect" : [ 50.0, 108.0, 83.0, 22.0 ],
									"style" : "",
									"text" : "vec 0. 0. 0. 0."
								}

							}
, 							{
								"box" : 								{
									"id" : "obj-6",
									"maxclass" : "newobj",
									"numinlets" : 2,
									"numoutlets" : 1,
									"outlettype" : [ "" ],
									"patching_rect" : [ 50.0, 75.0, 29.5, 22.0 ],
									"style" : "",
									"text" : "dot"
								}

							}
, 							{
								"box" : 								{
									"id" : "obj-5",
									"maxclass" : "newobj",
									"numinlets" : 0,
									"numoutlets" : 1,
									"outlettype" : [ "" ],
									"patching_rect" : [ 89.0, 14.0, 221.0, 22.0 ],
									"style" : "",
									"text" : "param luma_scale 0.299 0.587 0.114 0."
								}

							}
, 							{
								"box" : 								{
									"id" : "obj-1",
									"maxclass" : "newobj",
									"numinlets" : 0,
									"numoutlets" : 1,
									"outlettype" : [ "" ],
									"patching_rect" : [ 50.0, 14.0, 30.0, 22.0 ],
									"style" : "",
									"text" : "in 1"
								}

							}
, 							{
								"box" : 								{
									"id" : "obj-4",
									"maxclass" : "newobj",
									"numinlets" : 1,
									"numoutlets" : 0,
									"patching_rect" : [ 50.0, 141.0, 37.0, 22.0 ],
									"style" : "",
									"text" : "out 1"
								}

							}
 ],
						"lines" : [ 							{
								"patchline" : 								{
									"destination" : [ "obj-6", 0 ],
									"source" : [ "obj-1", 0 ]
								}

							}
, 							{
								"patchline" : 								{
									"destination" : [ "obj-6", 1 ],
									"source" : [ "obj-5", 0 ]
								}

							}
, 							{
								"patchline" : 								{
									"destination" : [ "obj-7", 3 ],
									"order" : 0,
									"source" : [ "obj-6", 0 ]
								}

							}
, 							{
								"patchline" : 								{
									"destination" : [ "obj-7", 2 ],
									"order" : 1,
									"source" : [ "obj-6", 0 ]
								}

							}
, 							{
								"patchline" : 								{
									"destination" : [ "obj-7", 1 ],
									"order" : 2,
									"source" : [ "obj-6", 0 ]
								}

							}
, 							{
								"patchline" : 								{
									"destination" : [ "obj-7", 0 ],
									"order" : 3,
									"source" : [ "obj-6", 0 ]
								}

							}
, 							{
								"patchline" : 								{
									"destination" : [ "obj-4", 0 ],
									"source" : [ "obj-7", 0 ]
								}

							}
 ]
					}
,
					"patching_rect" : [ 412.0, 154.0, 71.0, 22.0 ],
					"style" : "",
					"text" : "jit.gl.pix #1",
					"varname" : "luma-pix"
				}

			}
, 			{
				"box" : 				{
					"comment" : "Color Video In",
					"id" : "obj-3",
					"index" : 0,
					"maxclass" : "inlet",
					"numinlets" : 0,
					"numoutlets" : 1,
					"outlettype" : [ "" ],
					"patching_rect" : [ 412.0, 32.0, 30.0, 30.0 ],
					"style" : ""
				}

			}
, 			{
				"box" : 				{
					"comment" : "Control Texture In",
					"id" : "obj-2",
					"index" : 0,
					"maxclass" : "inlet",
					"numinlets" : 0,
					"numoutlets" : 1,
					"outlettype" : [ "" ],
					"patching_rect" : [ 227.0, 32.0, 30.0, 30.0 ],
					"style" : ""
				}

			}
, 			{
				"box" : 				{
					"comment" : "Pattr Messages In",
					"id" : "obj-1",
					"index" : 0,
					"maxclass" : "inlet",
					"numinlets" : 0,
					"numoutlets" : 1,
					"outlettype" : [ "" ],
					"patching_rect" : [ 42.0, 32.0, 30.0, 30.0 ],
					"style" : ""
				}

			}
, 			{
				"box" : 				{
					"attr" : "luma_scale",
					"displaymode" : 4,
					"id" : "obj-5",
					"lock" : 1,
					"maxclass" : "attrui",
					"numinlets" : 1,
					"numoutlets" : 1,
					"outlettype" : [ "" ],
					"patching_rect" : [ 284.0, 112.0, 286.0, 22.0 ],
					"presentation" : 1,
					"presentation_rect" : [ 6.0, 27.0, 286.0, 22.0 ],
					"style" : ""
				}

			}
, 			{
				"box" : 				{
					"angle" : 270.0,
					"background" : 1,
					"bgcolor" : [ 0.439216, 0.74902, 0.254902, 1.0 ],
					"border" : 1,
					"bordercolor" : [ 0.0, 0.0, 0.0, 1.0 ],
					"id" : "obj-13",
					"maxclass" : "panel",
					"mode" : 0,
					"numinlets" : 1,
					"numoutlets" : 0,
					"patching_rect" : [ 52.0, 117.0, 128.0, 128.0 ],
					"presentation" : 1,
					"presentation_rect" : [ 3.0, 3.0, 293.0, 20.0 ],
					"proportion" : 0.39,
					"rounded" : 0,
					"style" : ""
				}

			}
, 			{
				"box" : 				{
					"angle" : 270.0,
					"background" : 1,
					"bgcolor" : [ 0.290196, 0.309804, 0.301961, 0.0 ],
					"border" : 1,
					"bordercolor" : [ 0.0, 0.0, 0.0, 1.0 ],
					"id" : "obj-12",
					"maxclass" : "panel",
					"mode" : 0,
					"numinlets" : 1,
					"numoutlets" : 0,
					"patching_rect" : [ 230.0, 246.0, 128.0, 128.0 ],
					"presentation" : 1,
					"presentation_rect" : [ 3.0, 3.0, 293.0, 49.0 ],
					"proportion" : 0.39,
					"rounded" : 0,
					"style" : ""
				}

			}
 ],
		"lines" : [ 			{
				"patchline" : 				{
					"destination" : [ "obj-7", 0 ],
					"source" : [ "obj-1", 0 ]
				}

			}
, 			{
				"patchline" : 				{
					"destination" : [ "obj-9", 0 ],
					"source" : [ "obj-2", 0 ]
				}

			}
, 			{
				"patchline" : 				{
					"destination" : [ "obj-4", 0 ],
					"source" : [ "obj-3", 0 ]
				}

			}
, 			{
				"patchline" : 				{
					"destination" : [ "obj-11", 0 ],
					"order" : 1,
					"source" : [ "obj-4", 0 ]
				}

			}
, 			{
				"patchline" : 				{
					"destination" : [ "obj-9", 1 ],
					"order" : 0,
					"source" : [ "obj-4", 0 ]
				}

			}
, 			{
				"patchline" : 				{
					"destination" : [ "obj-4", 0 ],
					"source" : [ "obj-5", 0 ]
				}

			}
, 			{
				"patchline" : 				{
					"destination" : [ "obj-10", 0 ],
					"source" : [ "obj-9", 0 ]
				}

			}
 ],
		"dependency_cache" : [ 			{
				"name" : "f3.fxcombine.genjit",
				"bootpath" : "~/Documents/Max 7/Projects/f3-effects/Forest-3/f3-effects/code",
				"patcherrelativepath" : "../code",
				"type" : "gJIT",
				"implicit" : 1
			}
 ],
		"autosave" : 0
	}

}
