{
	"patcher" : 	{
		"fileversion" : 1,
		"appversion" : 		{
			"major" : 8,
			"minor" : 1,
			"revision" : 0,
			"architecture" : "x64",
			"modernui" : 1
		}
,
		"classnamespace" : "box",
		"rect" : [ 264.0, 176.0, 1316.0, 840.0 ],
		"bglocked" : 0,
		"openinpresentation" : 1,
		"default_fontsize" : 12.0,
		"default_fontface" : 0,
		"default_fontname" : "Arial",
		"gridonopen" : 1,
		"gridsize" : [ 15.0, 15.0 ],
		"gridsnaponopen" : 1,
		"objectsnaponopen" : 1,
		"statusbarvisible" : 2,
		"toolbarvisible" : 1,
		"lefttoolbarpinned" : 0,
		"toptoolbarpinned" : 0,
		"righttoolbarpinned" : 0,
		"bottomtoolbarpinned" : 0,
		"toolbars_unpinned_last_save" : 0,
		"tallnewobj" : 0,
		"boxanimatetime" : 200,
		"enablehscroll" : 1,
		"enablevscroll" : 1,
		"devicewidth" : 0.0,
		"description" : "",
		"digest" : "",
		"tags" : "",
		"style" : "",
		"subpatcher_template" : "",
		"boxes" : [ 			{
				"box" : 				{
					"id" : "obj-83",
					"maxclass" : "newobj",
					"numinlets" : 1,
					"numoutlets" : 3,
					"outlettype" : [ "", "", "" ],
					"patching_rect" : [ 281.0, 192.0, 219.0, 22.0 ],
					"restore" : [ -70.0 ],
					"saved_object_attributes" : 					{
						"parameter_enable" : 0,
						"parameter_mappable" : 0
					}
,
					"text" : "pattr gain-user5 @bindto livegain-user5",
					"varname" : "gain-user5"
				}

			}
, 			{
				"box" : 				{
					"id" : "obj-84",
					"maxclass" : "newobj",
					"numinlets" : 1,
					"numoutlets" : 3,
					"outlettype" : [ "", "", "" ],
					"patching_rect" : [ 279.75, 216.0, 311.0, 22.0 ],
					"saved_object_attributes" : 					{
						"initial" : [ "00_.wav" ],
						"parameter_enable" : 0,
						"parameter_mappable" : 0
					}
,
					"text" : "pattr file-user5 @bindto file-menu-user5 @initial 00_.wav",
					"varname" : "file-user5"
				}

			}
, 			{
				"box" : 				{
					"id" : "obj-81",
					"maxclass" : "newobj",
					"numinlets" : 1,
					"numoutlets" : 3,
					"outlettype" : [ "", "", "" ],
					"patching_rect" : [ 282.25, 142.0, 219.0, 22.0 ],
					"restore" : [ -70.0 ],
					"saved_object_attributes" : 					{
						"parameter_enable" : 0,
						"parameter_mappable" : 0
					}
,
					"text" : "pattr gain-user4 @bindto livegain-user4",
					"varname" : "gain-user4"
				}

			}
, 			{
				"box" : 				{
					"id" : "obj-82",
					"maxclass" : "newobj",
					"numinlets" : 1,
					"numoutlets" : 3,
					"outlettype" : [ "", "", "" ],
					"patching_rect" : [ 281.0, 166.0, 311.0, 22.0 ],
					"saved_object_attributes" : 					{
						"initial" : [ "00_.wav" ],
						"parameter_enable" : 0,
						"parameter_mappable" : 0
					}
,
					"text" : "pattr file-user4 @bindto file-menu-user4 @initial 00_.wav",
					"varname" : "file-user4"
				}

			}
, 			{
				"box" : 				{
					"id" : "obj-79",
					"maxclass" : "newobj",
					"numinlets" : 2,
					"numoutlets" : 1,
					"outlettype" : [ "signal" ],
					"patching_rect" : [ 655.0, 715.0, 29.5, 22.0 ],
					"text" : "+~"
				}

			}
, 			{
				"box" : 				{
					"id" : "obj-80",
					"maxclass" : "newobj",
					"numinlets" : 2,
					"numoutlets" : 1,
					"outlettype" : [ "signal" ],
					"patching_rect" : [ 686.5, 715.0, 29.5, 22.0 ],
					"text" : "+~"
				}

			}
, 			{
				"box" : 				{
					"id" : "obj-77",
					"maxclass" : "newobj",
					"numinlets" : 2,
					"numoutlets" : 1,
					"outlettype" : [ "signal" ],
					"patching_rect" : [ 655.0, 679.0, 29.5, 22.0 ],
					"text" : "+~"
				}

			}
, 			{
				"box" : 				{
					"id" : "obj-78",
					"maxclass" : "newobj",
					"numinlets" : 2,
					"numoutlets" : 1,
					"outlettype" : [ "signal" ],
					"patching_rect" : [ 686.5, 679.0, 29.5, 22.0 ],
					"text" : "+~"
				}

			}
, 			{
				"box" : 				{
					"format" : 6,
					"id" : "obj-65",
					"maxclass" : "flonum",
					"maximum" : 1.5,
					"minimum" : 0.5,
					"numinlets" : 1,
					"numoutlets" : 2,
					"outlettype" : [ "", "bang" ],
					"parameter_enable" : 0,
					"patching_rect" : [ 1125.333333333333485, 408.0, 50.0, 22.0 ]
				}

			}
, 			{
				"box" : 				{
					"id" : "obj-67",
					"maxclass" : "comment",
					"numinlets" : 1,
					"numoutlets" : 0,
					"patching_rect" : [ 1265.833333333333485, 367.0, 46.0, 20.0 ],
					"presentation" : 1,
					"presentation_rect" : [ 667.0, 1.0, 41.0, 20.0 ],
					"text" : "user5"
				}

			}
, 			{
				"box" : 				{
					"fontsize" : 12.0,
					"id" : "obj-69",
					"lastchannelcount" : 0,
					"maxclass" : "live.gain~",
					"numinlets" : 2,
					"numoutlets" : 5,
					"orientation" : 1,
					"outlettype" : [ "signal", "signal", "", "float", "list" ],
					"parameter_enable" : 1,
					"patching_rect" : [ 1182.833333333333485, 512.0, 129.0, 39.0 ],
					"presentation" : 1,
					"presentation_rect" : [ 566.0, 71.0, 139.0, 39.0 ],
					"saved_attribute_attributes" : 					{
						"valueof" : 						{
							"parameter_mmin" : -70.0,
							"parameter_longname" : "live.gain~[7]",
							"parameter_initial_enable" : 1,
							"parameter_mmax" : 6.0,
							"parameter_initial" : [ -70 ],
							"parameter_shortname" : "live.gain~",
							"parameter_type" : 0,
							"parameter_unitstyle" : 4
						}

					}
,
					"showname" : 0,
					"varname" : "livegain-user5"
				}

			}
, 			{
				"box" : 				{
					"fontname" : "Arial",
					"fontsize" : 13.0,
					"id" : "obj-70",
					"maxclass" : "newobj",
					"numinlets" : 2,
					"numoutlets" : 3,
					"outlettype" : [ "signal", "signal", "bang" ],
					"patching_rect" : [ 1183.333333333333485, 473.0, 113.0, 23.0 ],
					"saved_object_attributes" : 					{
						"basictuning" : 440,
						"followglobaltempo" : 0,
						"formantcorrection" : 0,
						"mode" : "basic",
						"originallength" : [ 206.659999999999968, "ticks" ],
						"originaltempo" : 120.0,
						"pitchcorrection" : 0,
						"quality" : "basic",
						"timestretch" : [ 0 ]
					}
,
					"text" : "sfplay~ 2 @loop 1",
					"varname" : "sound-player-user5"
				}

			}
, 			{
				"box" : 				{
					"fontname" : "Arial",
					"fontsize" : 13.0,
					"id" : "obj-71",
					"maxclass" : "message",
					"numinlets" : 2,
					"numoutlets" : 1,
					"outlettype" : [ "" ],
					"patching_rect" : [ 1130.333333333333485, 443.0, 40.0, 23.0 ],
					"text" : "open"
				}

			}
, 			{
				"box" : 				{
					"id" : "obj-72",
					"items" : [ "00_.mov", ",", "00_.wav", ",", "01_convers.wav", ",", "01_convers2.wav", ",", "01_linedrone.wav", ",", "01_linelong.wav", ",", "01_linesynth.wav", ",", "01_music.wav", ",", "01_travel.wav", ",", "01_voice.wav", ",", "02_convers.wav", ",", "02_intro.wav", ",", "02_music.wav", ",", "02_travel.wav", ",", "02_voice.wav", ",", "02_wave.wav", ",", "02_wave2.wav", ",", "02_wave3.wav", ",", "02_wave4.wav", ",", "03_convers.wav", ",", "03_convers2.wav", ",", "03_music2.wav", ",", "03_musicA.wav", ",", "03_musicB.wav", ",", "03_travel.wav", ",", "03_voice2.wav", ",", "04_music.wav", ",", "04_plane.wav", ",", "04_plane1.wav", ",", "04_plane2.wav", ",", "04_plane3.wav", ",", "04_plane4.wav", ",", "04_travel.wav", ",", "04_voice.wav", ",", "05_danceloop.wav", ",", "05_danceloop2.wav", ",", "05_interact1.wav", ",", "05_interact1b.wav", ",", "05_interact2.wav", ",", "05_interact2b.wav", ",", "05_interact3.wav", ",", "05_interact3b.wav", ",", "05_interact4.wav", ",", "05_interact4b.wav", ",", "05_music.wav", ",", "05_music1.wav", ",", "05_travel.wav", ",", "05_travel2.wav", ",", "05_travel2b.wav", ",", "05_voice.wav", ",", "05_voice1.wav", ",", "06_music_notravel.wav", ",", "06_voice.wav", ",", "07_end.wav", ",", "bigbang.mov", ",", "cloudtunnel.mp4", ",", "color_scanloop.mp4", ",", "dance_color_loop.mov", ",", "dance_color_loop2.mov", ",", "dance_colorwheel1.mov", ",", "dance_colorwheel2.mov", ",", "fire_vert.mp4", ",", "fire_vert2.mp4", ",", "roof.png", ",", "rot.mp4", ",", "rot2.mp4", ",", "rot3.mp4", ",", "rotate.mp4", ",", "scottland.mp4", ",", "speedstars2.mov", ",", "speeedstars.mov", ",", "spiral.mp4", ",", "spiral2.mp4", ",", "spiralA.mp4", ",", "spiralB.mp4", ",", "star_anim100.mp4", ",", "star_loop1.mov", ",", "star_loop2.mov", ",", "stars_anim.mp4", ",", "stars_by100.mov", ",", "stars_by200.mov", ",", "stars_by_glow300.mov", ",", "streets.mp4", ",", "test.mov", ",", "tulips.mp4", ",", "tulips3.mp4", ",", "tulips4.mp4", ",", "tv-stripes.mp4", ",", "vis_arrow.png", ",", "wave1.mp4", ",", "wave_end.mp4", ",", "wave_syphon.mp4", ",", "windmill.mp4" ],
					"maxclass" : "umenu",
					"numinlets" : 1,
					"numoutlets" : 3,
					"outlettype" : [ "int", "", "" ],
					"parameter_enable" : 0,
					"patching_rect" : [ 1143.833333333333485, 327.0, 100.0, 22.0 ],
					"pattrmode" : 1,
					"prefix" : "chrispobo2:/Users/cz/Documents/Max 8/Projects/Forest-3/f3-effects/media/",
					"presentation" : 1,
					"presentation_rect" : [ 566.0, 23.0, 139.0, 22.0 ],
					"varname" : "file-menu-user5"
				}

			}
, 			{
				"box" : 				{
					"id" : "obj-73",
					"maxclass" : "message",
					"numinlets" : 2,
					"numoutlets" : 1,
					"outlettype" : [ "" ],
					"patching_rect" : [ 1184.333333333333485, 367.0, 65.0, 22.0 ],
					"text" : "open $1, 1"
				}

			}
, 			{
				"box" : 				{
					"attr" : "autopopulate",
					"id" : "obj-74",
					"maxclass" : "attrui",
					"numinlets" : 1,
					"numoutlets" : 1,
					"outlettype" : [ "" ],
					"patching_rect" : [ 1143.833333333333485, 297.0, 150.0, 22.0 ]
				}

			}
, 			{
				"box" : 				{
					"attr" : "speed",
					"id" : "obj-75",
					"maxclass" : "attrui",
					"numinlets" : 1,
					"numoutlets" : 1,
					"outlettype" : [ "" ],
					"patching_rect" : [ 1183.333333333333485, 436.0, 150.0, 22.0 ],
					"presentation" : 1,
					"presentation_rect" : [ 566.0, 47.0, 139.0, 22.0 ]
				}

			}
, 			{
				"box" : 				{
					"bordercolor" : [ 0.501961, 0.501961, 0.501961, 0.0 ],
					"id" : "obj-76",
					"ignoreclick" : 1,
					"maxclass" : "dropfile",
					"numinlets" : 1,
					"numoutlets" : 2,
					"outlettype" : [ "", "" ],
					"patching_rect" : [ 1080.333333333333485, 338.0, 33.0, 42.0 ],
					"presentation" : 1,
					"presentation_rect" : [ 566.5, 1.0, 139.0, 109.0 ]
				}

			}
, 			{
				"box" : 				{
					"format" : 6,
					"id" : "obj-1",
					"maxclass" : "flonum",
					"maximum" : 1.5,
					"minimum" : 0.5,
					"numinlets" : 1,
					"numoutlets" : 2,
					"outlettype" : [ "", "bang" ],
					"parameter_enable" : 0,
					"patching_rect" : [ 877.0, 408.0, 50.0, 22.0 ]
				}

			}
, 			{
				"box" : 				{
					"id" : "obj-33",
					"maxclass" : "comment",
					"numinlets" : 1,
					"numoutlets" : 0,
					"patching_rect" : [ 1017.5, 367.0, 46.0, 20.0 ],
					"presentation" : 1,
					"presentation_rect" : [ 523.5, 1.0, 41.0, 20.0 ],
					"text" : "user4"
				}

			}
, 			{
				"box" : 				{
					"fontsize" : 12.0,
					"id" : "obj-34",
					"lastchannelcount" : 0,
					"maxclass" : "live.gain~",
					"numinlets" : 2,
					"numoutlets" : 5,
					"orientation" : 1,
					"outlettype" : [ "signal", "signal", "", "float", "list" ],
					"parameter_enable" : 1,
					"patching_rect" : [ 934.5, 512.0, 129.0, 39.0 ],
					"presentation" : 1,
					"presentation_rect" : [ 424.5, 71.0, 139.0, 39.0 ],
					"saved_attribute_attributes" : 					{
						"valueof" : 						{
							"parameter_mmin" : -70.0,
							"parameter_longname" : "live.gain~[6]",
							"parameter_initial_enable" : 1,
							"parameter_mmax" : 6.0,
							"parameter_initial" : [ -70 ],
							"parameter_shortname" : "live.gain~",
							"parameter_type" : 0,
							"parameter_unitstyle" : 4
						}

					}
,
					"showname" : 0,
					"varname" : "livegain-user4"
				}

			}
, 			{
				"box" : 				{
					"fontname" : "Arial",
					"fontsize" : 13.0,
					"id" : "obj-35",
					"maxclass" : "newobj",
					"numinlets" : 2,
					"numoutlets" : 3,
					"outlettype" : [ "signal", "signal", "bang" ],
					"patching_rect" : [ 935.0, 473.0, 113.0, 23.0 ],
					"saved_object_attributes" : 					{
						"basictuning" : 440,
						"followglobaltempo" : 0,
						"formantcorrection" : 0,
						"mode" : "basic",
						"originallength" : [ 206.659999999999968, "ticks" ],
						"originaltempo" : 120.0,
						"pitchcorrection" : 0,
						"quality" : "basic",
						"timestretch" : [ 0 ]
					}
,
					"text" : "sfplay~ 2 @loop 1",
					"varname" : "sound-player-user4"
				}

			}
, 			{
				"box" : 				{
					"fontname" : "Arial",
					"fontsize" : 13.0,
					"id" : "obj-36",
					"maxclass" : "message",
					"numinlets" : 2,
					"numoutlets" : 1,
					"outlettype" : [ "" ],
					"patching_rect" : [ 882.0, 443.0, 40.0, 23.0 ],
					"text" : "open"
				}

			}
, 			{
				"box" : 				{
					"id" : "obj-37",
					"items" : [ "00_.mov", ",", "00_.wav", ",", "01_convers.wav", ",", "01_convers2.wav", ",", "01_linedrone.wav", ",", "01_linelong.wav", ",", "01_linesynth.wav", ",", "01_music.wav", ",", "01_travel.wav", ",", "01_voice.wav", ",", "02_convers.wav", ",", "02_intro.wav", ",", "02_music.wav", ",", "02_travel.wav", ",", "02_voice.wav", ",", "02_wave.wav", ",", "02_wave2.wav", ",", "02_wave3.wav", ",", "02_wave4.wav", ",", "03_convers.wav", ",", "03_convers2.wav", ",", "03_music2.wav", ",", "03_musicA.wav", ",", "03_musicB.wav", ",", "03_travel.wav", ",", "03_voice2.wav", ",", "04_music.wav", ",", "04_plane.wav", ",", "04_plane1.wav", ",", "04_plane2.wav", ",", "04_plane3.wav", ",", "04_plane4.wav", ",", "04_travel.wav", ",", "04_voice.wav", ",", "05_danceloop.wav", ",", "05_danceloop2.wav", ",", "05_interact1.wav", ",", "05_interact1b.wav", ",", "05_interact2.wav", ",", "05_interact2b.wav", ",", "05_interact3.wav", ",", "05_interact3b.wav", ",", "05_interact4.wav", ",", "05_interact4b.wav", ",", "05_music.wav", ",", "05_music1.wav", ",", "05_travel.wav", ",", "05_travel2.wav", ",", "05_travel2b.wav", ",", "05_voice.wav", ",", "05_voice1.wav", ",", "06_music_notravel.wav", ",", "06_voice.wav", ",", "07_end.wav", ",", "bigbang.mov", ",", "cloudtunnel.mp4", ",", "color_scanloop.mp4", ",", "dance_color_loop.mov", ",", "dance_color_loop2.mov", ",", "dance_colorwheel1.mov", ",", "dance_colorwheel2.mov", ",", "fire_vert.mp4", ",", "fire_vert2.mp4", ",", "roof.png", ",", "rot.mp4", ",", "rot2.mp4", ",", "rot3.mp4", ",", "rotate.mp4", ",", "scottland.mp4", ",", "speedstars2.mov", ",", "speeedstars.mov", ",", "spiral.mp4", ",", "spiral2.mp4", ",", "spiralA.mp4", ",", "spiralB.mp4", ",", "star_anim100.mp4", ",", "star_loop1.mov", ",", "star_loop2.mov", ",", "stars_anim.mp4", ",", "stars_by100.mov", ",", "stars_by200.mov", ",", "stars_by_glow300.mov", ",", "streets.mp4", ",", "test.mov", ",", "tulips.mp4", ",", "tulips3.mp4", ",", "tulips4.mp4", ",", "tv-stripes.mp4", ",", "vis_arrow.png", ",", "wave1.mp4", ",", "wave_end.mp4", ",", "wave_syphon.mp4", ",", "windmill.mp4" ],
					"maxclass" : "umenu",
					"numinlets" : 1,
					"numoutlets" : 3,
					"outlettype" : [ "int", "", "" ],
					"parameter_enable" : 0,
					"patching_rect" : [ 895.5, 327.0, 100.0, 22.0 ],
					"pattrmode" : 1,
					"prefix" : "chrispobo2:/Users/cz/Documents/Max 8/Projects/Forest-3/f3-effects/media/",
					"presentation" : 1,
					"presentation_rect" : [ 424.5, 23.0, 139.0, 22.0 ],
					"varname" : "file-menu-user4"
				}

			}
, 			{
				"box" : 				{
					"id" : "obj-38",
					"maxclass" : "message",
					"numinlets" : 2,
					"numoutlets" : 1,
					"outlettype" : [ "" ],
					"patching_rect" : [ 936.0, 367.0, 65.0, 22.0 ],
					"text" : "open $1, 1"
				}

			}
, 			{
				"box" : 				{
					"attr" : "autopopulate",
					"id" : "obj-39",
					"maxclass" : "attrui",
					"numinlets" : 1,
					"numoutlets" : 1,
					"outlettype" : [ "" ],
					"patching_rect" : [ 895.5, 297.0, 150.0, 22.0 ]
				}

			}
, 			{
				"box" : 				{
					"attr" : "speed",
					"id" : "obj-40",
					"maxclass" : "attrui",
					"numinlets" : 1,
					"numoutlets" : 1,
					"outlettype" : [ "" ],
					"patching_rect" : [ 935.0, 436.0, 150.0, 22.0 ],
					"presentation" : 1,
					"presentation_rect" : [ 424.5, 47.0, 139.0, 22.0 ]
				}

			}
, 			{
				"box" : 				{
					"bordercolor" : [ 0.501961, 0.501961, 0.501961, 0.0 ],
					"id" : "obj-45",
					"ignoreclick" : 1,
					"maxclass" : "dropfile",
					"numinlets" : 1,
					"numoutlets" : 2,
					"outlettype" : [ "", "" ],
					"patching_rect" : [ 832.0, 338.0, 33.0, 42.0 ],
					"presentation" : 1,
					"presentation_rect" : [ 425.0, 1.0, 139.0, 109.0 ]
				}

			}
, 			{
				"box" : 				{
					"id" : "obj-31",
					"maxclass" : "comment",
					"numinlets" : 1,
					"numoutlets" : 0,
					"patching_rect" : [ 651.25, 57.0, 150.0, 20.0 ],
					"text" : "3rd user (single wave)"
				}

			}
, 			{
				"box" : 				{
					"id" : "obj-60",
					"maxclass" : "newobj",
					"numinlets" : 0,
					"numoutlets" : 3,
					"outlettype" : [ "float", "float", "float" ],
					"patcher" : 					{
						"fileversion" : 1,
						"appversion" : 						{
							"major" : 8,
							"minor" : 1,
							"revision" : 0,
							"architecture" : "x64",
							"modernui" : 1
						}
,
						"classnamespace" : "box",
						"rect" : [ 0.0, 0.0, 640.0, 480.0 ],
						"bglocked" : 0,
						"openinpresentation" : 0,
						"default_fontsize" : 12.0,
						"default_fontface" : 0,
						"default_fontname" : "Arial",
						"gridonopen" : 1,
						"gridsize" : [ 15.0, 15.0 ],
						"gridsnaponopen" : 1,
						"objectsnaponopen" : 1,
						"statusbarvisible" : 2,
						"toolbarvisible" : 1,
						"lefttoolbarpinned" : 0,
						"toptoolbarpinned" : 0,
						"righttoolbarpinned" : 0,
						"bottomtoolbarpinned" : 0,
						"toolbars_unpinned_last_save" : 0,
						"tallnewobj" : 0,
						"boxanimatetime" : 200,
						"enablehscroll" : 1,
						"enablevscroll" : 1,
						"devicewidth" : 0.0,
						"description" : "",
						"digest" : "",
						"tags" : "",
						"style" : "",
						"subpatcher_template" : "",
						"boxes" : [ 							{
								"box" : 								{
									"id" : "obj-40",
									"maxclass" : "newobj",
									"numinlets" : 2,
									"numoutlets" : 1,
									"outlettype" : [ "float" ],
									"patching_rect" : [ 208.25, 198.0, 29.5, 22.0 ],
									"text" : "* 2."
								}

							}
, 							{
								"box" : 								{
									"id" : "obj-39",
									"maxclass" : "newobj",
									"numinlets" : 2,
									"numoutlets" : 1,
									"outlettype" : [ "float" ],
									"patching_rect" : [ 130.416666666666742, 198.0, 29.5, 22.0 ],
									"text" : "* 2."
								}

							}
, 							{
								"box" : 								{
									"id" : "obj-38",
									"maxclass" : "newobj",
									"numinlets" : 2,
									"numoutlets" : 1,
									"outlettype" : [ "float" ],
									"patching_rect" : [ 50.0, 198.0, 29.5, 22.0 ],
									"text" : "* 2."
								}

							}
, 							{
								"box" : 								{
									"id" : "obj-37",
									"maxclass" : "newobj",
									"numinlets" : 2,
									"numoutlets" : 2,
									"outlettype" : [ "", "" ],
									"patching_rect" : [ 207.333333333333371, 165.0, 47.0, 22.0 ],
									"text" : "zl.nth 3"
								}

							}
, 							{
								"box" : 								{
									"id" : "obj-36",
									"maxclass" : "newobj",
									"numinlets" : 2,
									"numoutlets" : 2,
									"outlettype" : [ "", "" ],
									"patching_rect" : [ 128.666666666666742, 165.0, 47.0, 22.0 ],
									"text" : "zl.nth 3"
								}

							}
, 							{
								"box" : 								{
									"id" : "obj-35",
									"maxclass" : "newobj",
									"numinlets" : 2,
									"numoutlets" : 2,
									"outlettype" : [ "", "" ],
									"patching_rect" : [ 50.0, 165.0, 47.0, 22.0 ],
									"text" : "zl.nth 3"
								}

							}
, 							{
								"box" : 								{
									"id" : "obj-34",
									"maxclass" : "newobj",
									"numinlets" : 4,
									"numoutlets" : 4,
									"outlettype" : [ "", "", "", "" ],
									"patching_rect" : [ 50.0, 136.0, 255.000000000000114, 22.0 ],
									"text" : "route p0 p1 p2"
								}

							}
, 							{
								"box" : 								{
									"id" : "obj-31",
									"maxclass" : "newobj",
									"numinlets" : 0,
									"numoutlets" : 1,
									"outlettype" : [ "" ],
									"patching_rect" : [ 50.0, 100.0, 53.0, 22.0 ],
									"text" : "r triGrad"
								}

							}
, 							{
								"box" : 								{
									"comment" : "",
									"id" : "obj-1",
									"index" : 1,
									"maxclass" : "outlet",
									"numinlets" : 1,
									"numoutlets" : 0,
									"patching_rect" : [ 50.0, 280.0, 30.0, 30.0 ]
								}

							}
, 							{
								"box" : 								{
									"comment" : "",
									"id" : "obj-33",
									"index" : 2,
									"maxclass" : "outlet",
									"numinlets" : 1,
									"numoutlets" : 0,
									"patching_rect" : [ 130.416687000000024, 280.0, 30.0, 30.0 ]
								}

							}
, 							{
								"box" : 								{
									"comment" : "",
									"id" : "obj-45",
									"index" : 3,
									"maxclass" : "outlet",
									"numinlets" : 1,
									"numoutlets" : 0,
									"patching_rect" : [ 208.25, 280.0, 30.0, 30.0 ]
								}

							}
 ],
						"lines" : [ 							{
								"patchline" : 								{
									"destination" : [ "obj-34", 0 ],
									"source" : [ "obj-31", 0 ]
								}

							}
, 							{
								"patchline" : 								{
									"destination" : [ "obj-35", 0 ],
									"source" : [ "obj-34", 0 ]
								}

							}
, 							{
								"patchline" : 								{
									"destination" : [ "obj-36", 0 ],
									"source" : [ "obj-34", 1 ]
								}

							}
, 							{
								"patchline" : 								{
									"destination" : [ "obj-37", 0 ],
									"source" : [ "obj-34", 2 ]
								}

							}
, 							{
								"patchline" : 								{
									"destination" : [ "obj-38", 0 ],
									"source" : [ "obj-35", 0 ]
								}

							}
, 							{
								"patchline" : 								{
									"destination" : [ "obj-39", 0 ],
									"source" : [ "obj-36", 0 ]
								}

							}
, 							{
								"patchline" : 								{
									"destination" : [ "obj-40", 0 ],
									"source" : [ "obj-37", 0 ]
								}

							}
, 							{
								"patchline" : 								{
									"destination" : [ "obj-1", 0 ],
									"source" : [ "obj-38", 0 ]
								}

							}
, 							{
								"patchline" : 								{
									"destination" : [ "obj-33", 0 ],
									"source" : [ "obj-39", 0 ]
								}

							}
, 							{
								"patchline" : 								{
									"destination" : [ "obj-45", 0 ],
									"source" : [ "obj-40", 0 ]
								}

							}
 ]
					}
,
					"patching_rect" : [ 937.0, 22.0, 176.333333333333371, 22.0 ],
					"saved_object_attributes" : 					{
						"description" : "",
						"digest" : "",
						"globalpatchername" : "",
						"tags" : ""
					}
,
					"text" : "p triGrid remote"
				}

			}
, 			{
				"box" : 				{
					"id" : "obj-14",
					"maxclass" : "newobj",
					"numinlets" : 6,
					"numoutlets" : 1,
					"outlettype" : [ "" ],
					"patching_rect" : [ 602.25, 116.0, 97.0, 22.0 ],
					"text" : "scale 0. 1. -20 0."
				}

			}
, 			{
				"box" : 				{
					"format" : 6,
					"id" : "obj-44",
					"maxclass" : "flonum",
					"numinlets" : 1,
					"numoutlets" : 2,
					"outlettype" : [ "", "bang" ],
					"parameter_enable" : 0,
					"patching_rect" : [ 602.25, 85.0, 50.0, 22.0 ]
				}

			}
, 			{
				"box" : 				{
					"comment" : "",
					"id" : "obj-26",
					"index" : 0,
					"maxclass" : "inlet",
					"numinlets" : 0,
					"numoutlets" : 1,
					"outlettype" : [ "" ],
					"patching_rect" : [ 602.25, 20.0, 30.0, 30.0 ]
				}

			}
, 			{
				"box" : 				{
					"id" : "obj-16",
					"maxclass" : "message",
					"numinlets" : 2,
					"numoutlets" : 1,
					"outlettype" : [ "" ],
					"patching_rect" : [ 137.0, 404.0, 65.0, 22.0 ],
					"text" : "open $1, 1"
				}

			}
, 			{
				"box" : 				{
					"fontsize" : 12.0,
					"id" : "obj-27",
					"lastchannelcount" : 0,
					"maxclass" : "live.gain~",
					"numinlets" : 2,
					"numoutlets" : 5,
					"orientation" : 1,
					"outlettype" : [ "signal", "signal", "", "float", "list" ],
					"parameter_enable" : 1,
					"patching_rect" : [ 113.0, 517.0, 129.0, 39.0 ],
					"presentation" : 1,
					"presentation_rect" : [ 6.0, 71.0, 136.0, 39.0 ],
					"saved_attribute_attributes" : 					{
						"valueof" : 						{
							"parameter_mmin" : -70.0,
							"parameter_longname" : "live.gain~[5]",
							"parameter_initial_enable" : 1,
							"parameter_mmax" : 6.0,
							"parameter_initial" : [ -70 ],
							"parameter_shortname" : "live.gain~",
							"parameter_type" : 0,
							"parameter_unitstyle" : 4
						}

					}
,
					"showname" : 0,
					"varname" : "livegain-user1"
				}

			}
, 			{
				"box" : 				{
					"id" : "obj-23",
					"maxclass" : "toggle",
					"numinlets" : 1,
					"numoutlets" : 1,
					"outlettype" : [ "int" ],
					"parameter_enable" : 0,
					"patching_rect" : [ 542.5, 244.0, 21.5, 21.5 ],
					"presentation" : 1,
					"presentation_rect" : [ 95.0, 1.0, 20.0, 20.0 ]
				}

			}
, 			{
				"box" : 				{
					"id" : "obj-63",
					"maxclass" : "newobj",
					"numinlets" : 2,
					"numoutlets" : 1,
					"outlettype" : [ "signal" ],
					"patching_rect" : [ 655.0, 643.0, 29.5, 22.0 ],
					"text" : "+~"
				}

			}
, 			{
				"box" : 				{
					"id" : "obj-64",
					"maxclass" : "newobj",
					"numinlets" : 2,
					"numoutlets" : 1,
					"outlettype" : [ "signal" ],
					"patching_rect" : [ 686.5, 643.0, 29.5, 22.0 ],
					"text" : "+~"
				}

			}
, 			{
				"box" : 				{
					"format" : 6,
					"id" : "obj-49",
					"maxclass" : "flonum",
					"maximum" : 1.5,
					"minimum" : 0.5,
					"numinlets" : 1,
					"numoutlets" : 2,
					"outlettype" : [ "", "bang" ],
					"parameter_enable" : 0,
					"patching_rect" : [ 610.0, 408.0, 50.0, 22.0 ]
				}

			}
, 			{
				"box" : 				{
					"id" : "obj-50",
					"maxclass" : "comment",
					"numinlets" : 1,
					"numoutlets" : 0,
					"patching_rect" : [ 750.5, 367.0, 46.0, 20.0 ],
					"presentation" : 1,
					"presentation_rect" : [ 385.0, 1.0, 41.0, 20.0 ],
					"text" : "user3"
				}

			}
, 			{
				"box" : 				{
					"fontsize" : 12.0,
					"id" : "obj-53",
					"lastchannelcount" : 0,
					"maxclass" : "live.gain~",
					"numinlets" : 2,
					"numoutlets" : 5,
					"orientation" : 1,
					"outlettype" : [ "signal", "signal", "", "float", "list" ],
					"parameter_enable" : 1,
					"patching_rect" : [ 667.5, 512.0, 129.0, 39.0 ],
					"presentation" : 1,
					"presentation_rect" : [ 284.0, 71.0, 139.0, 39.0 ],
					"saved_attribute_attributes" : 					{
						"valueof" : 						{
							"parameter_mmin" : -70.0,
							"parameter_longname" : "live.gain~[4]",
							"parameter_initial_enable" : 1,
							"parameter_mmax" : 6.0,
							"parameter_initial" : [ -70 ],
							"parameter_shortname" : "live.gain~",
							"parameter_type" : 0,
							"parameter_unitstyle" : 4
						}

					}
,
					"showname" : 0,
					"varname" : "livegain-user3"
				}

			}
, 			{
				"box" : 				{
					"fontname" : "Arial",
					"fontsize" : 13.0,
					"id" : "obj-54",
					"maxclass" : "newobj",
					"numinlets" : 2,
					"numoutlets" : 3,
					"outlettype" : [ "signal", "signal", "bang" ],
					"patching_rect" : [ 668.0, 473.0, 113.0, 23.0 ],
					"saved_object_attributes" : 					{
						"basictuning" : 440,
						"followglobaltempo" : 0,
						"formantcorrection" : 0,
						"mode" : "basic",
						"originallength" : [ 206.659999999999968, "ticks" ],
						"originaltempo" : 120.0,
						"pitchcorrection" : 0,
						"quality" : "basic",
						"timestretch" : [ 0 ]
					}
,
					"text" : "sfplay~ 2 @loop 1",
					"varname" : "sound-player-user3"
				}

			}
, 			{
				"box" : 				{
					"fontname" : "Arial",
					"fontsize" : 13.0,
					"id" : "obj-55",
					"maxclass" : "message",
					"numinlets" : 2,
					"numoutlets" : 1,
					"outlettype" : [ "" ],
					"patching_rect" : [ 615.0, 443.0, 40.0, 23.0 ],
					"text" : "open"
				}

			}
, 			{
				"box" : 				{
					"id" : "obj-57",
					"items" : [ "00_.mov", ",", "00_.wav", ",", "01_convers.wav", ",", "01_convers2.wav", ",", "01_linedrone.wav", ",", "01_linelong.wav", ",", "01_linesynth.wav", ",", "01_music.wav", ",", "01_travel.wav", ",", "01_voice.wav", ",", "02_convers.wav", ",", "02_intro.wav", ",", "02_music.wav", ",", "02_travel.wav", ",", "02_voice.wav", ",", "02_wave.wav", ",", "02_wave2.wav", ",", "02_wave3.wav", ",", "02_wave4.wav", ",", "03_convers.wav", ",", "03_convers2.wav", ",", "03_music2.wav", ",", "03_musicA.wav", ",", "03_musicB.wav", ",", "03_travel.wav", ",", "03_voice2.wav", ",", "04_music.wav", ",", "04_plane.wav", ",", "04_plane1.wav", ",", "04_plane2.wav", ",", "04_plane3.wav", ",", "04_plane4.wav", ",", "04_travel.wav", ",", "04_voice.wav", ",", "05_danceloop.wav", ",", "05_danceloop2.wav", ",", "05_interact1.wav", ",", "05_interact1b.wav", ",", "05_interact2.wav", ",", "05_interact2b.wav", ",", "05_interact3.wav", ",", "05_interact3b.wav", ",", "05_interact4.wav", ",", "05_interact4b.wav", ",", "05_music.wav", ",", "05_music1.wav", ",", "05_travel.wav", ",", "05_travel2.wav", ",", "05_travel2b.wav", ",", "05_voice.wav", ",", "05_voice1.wav", ",", "06_music_notravel.wav", ",", "06_voice.wav", ",", "07_end.wav", ",", "bigbang.mov", ",", "cloudtunnel.mp4", ",", "color_scanloop.mp4", ",", "dance_color_loop.mov", ",", "dance_color_loop2.mov", ",", "dance_colorwheel1.mov", ",", "dance_colorwheel2.mov", ",", "fire_vert.mp4", ",", "fire_vert2.mp4", ",", "roof.png", ",", "rot.mp4", ",", "rot2.mp4", ",", "rot3.mp4", ",", "rotate.mp4", ",", "scottland.mp4", ",", "speedstars2.mov", ",", "speeedstars.mov", ",", "spiral.mp4", ",", "spiral2.mp4", ",", "spiralA.mp4", ",", "spiralB.mp4", ",", "star_anim100.mp4", ",", "star_loop1.mov", ",", "star_loop2.mov", ",", "stars_anim.mp4", ",", "stars_by100.mov", ",", "stars_by200.mov", ",", "stars_by_glow300.mov", ",", "streets.mp4", ",", "test.mov", ",", "tulips.mp4", ",", "tulips3.mp4", ",", "tulips4.mp4", ",", "tv-stripes.mp4", ",", "vis_arrow.png", ",", "wave1.mp4", ",", "wave_end.mp4", ",", "wave_syphon.mp4", ",", "windmill.mp4" ],
					"maxclass" : "umenu",
					"numinlets" : 1,
					"numoutlets" : 3,
					"outlettype" : [ "int", "", "" ],
					"parameter_enable" : 0,
					"patching_rect" : [ 628.5, 327.0, 100.0, 22.0 ],
					"pattrmode" : 1,
					"prefix" : "chrispobo2:/Users/cz/Documents/Max 8/Projects/Forest-3/f3-effects/media/",
					"presentation" : 1,
					"presentation_rect" : [ 284.0, 23.0, 139.0, 22.0 ],
					"varname" : "file-menu-user3"
				}

			}
, 			{
				"box" : 				{
					"id" : "obj-58",
					"maxclass" : "message",
					"numinlets" : 2,
					"numoutlets" : 1,
					"outlettype" : [ "" ],
					"patching_rect" : [ 669.0, 367.0, 65.0, 22.0 ],
					"text" : "open $1, 1"
				}

			}
, 			{
				"box" : 				{
					"attr" : "autopopulate",
					"id" : "obj-59",
					"maxclass" : "attrui",
					"numinlets" : 1,
					"numoutlets" : 1,
					"outlettype" : [ "" ],
					"patching_rect" : [ 628.5, 297.0, 150.0, 22.0 ]
				}

			}
, 			{
				"box" : 				{
					"attr" : "speed",
					"id" : "obj-62",
					"maxclass" : "attrui",
					"numinlets" : 1,
					"numoutlets" : 1,
					"outlettype" : [ "" ],
					"patching_rect" : [ 668.0, 436.0, 150.0, 22.0 ],
					"presentation" : 1,
					"presentation_rect" : [ 284.0, 47.0, 139.0, 22.0 ]
				}

			}
, 			{
				"box" : 				{
					"format" : 6,
					"id" : "obj-47",
					"maxclass" : "flonum",
					"maximum" : 1.5,
					"minimum" : 0.5,
					"numinlets" : 1,
					"numoutlets" : 2,
					"outlettype" : [ "", "bang" ],
					"parameter_enable" : 0,
					"patching_rect" : [ 53.0, 408.0, 50.0, 22.0 ]
				}

			}
, 			{
				"box" : 				{
					"format" : 6,
					"id" : "obj-46",
					"maxclass" : "flonum",
					"maximum" : 1.5,
					"minimum" : 0.5,
					"numinlets" : 1,
					"numoutlets" : 2,
					"outlettype" : [ "", "bang" ],
					"parameter_enable" : 0,
					"patching_rect" : [ 343.0, 408.0, 50.0, 22.0 ]
				}

			}
, 			{
				"box" : 				{
					"id" : "obj-29",
					"maxclass" : "newobj",
					"numinlets" : 1,
					"numoutlets" : 3,
					"outlettype" : [ "", "", "" ],
					"patching_rect" : [ 282.25, 92.0, 220.0, 22.0 ],
					"restore" : [ -70.0 ],
					"saved_object_attributes" : 					{
						"parameter_enable" : 0,
						"parameter_mappable" : 0
					}
,
					"text" : "pattr gain-user3 @bindto livegain-user3",
					"varname" : "gain-user3"
				}

			}
, 			{
				"box" : 				{
					"id" : "obj-30",
					"maxclass" : "newobj",
					"numinlets" : 1,
					"numoutlets" : 3,
					"outlettype" : [ "", "", "" ],
					"patching_rect" : [ 281.0, 116.0, 311.0, 22.0 ],
					"saved_object_attributes" : 					{
						"initial" : [ "00_.wav" ],
						"parameter_enable" : 0,
						"parameter_mappable" : 0
					}
,
					"text" : "pattr file-user3 @bindto file-menu-user3 @initial 00_.wav",
					"varname" : "file-user3"
				}

			}
, 			{
				"box" : 				{
					"id" : "obj-28",
					"maxclass" : "newobj",
					"numinlets" : 1,
					"numoutlets" : 3,
					"outlettype" : [ "", "", "" ],
					"patching_rect" : [ 1094.333333333333485, 153.0, 382.0, 22.0 ],
					"saved_object_attributes" : 					{
						"initial" : [ 1.0 ],
						"parameter_enable" : 0,
						"parameter_mappable" : 0
					}
,
					"text" : "pattr audiospeed-user3 @bindto sound-player-user3::speed @initial 1.",
					"varname" : "audiospeed-user3"
				}

			}
, 			{
				"box" : 				{
					"id" : "obj-22",
					"maxclass" : "comment",
					"numinlets" : 1,
					"numoutlets" : 0,
					"patching_rect" : [ 483.5, 367.0, 46.0, 20.0 ],
					"presentation" : 1,
					"presentation_rect" : [ 246.0, 1.0, 41.0, 20.0 ],
					"text" : "user2"
				}

			}
, 			{
				"box" : 				{
					"id" : "obj-32",
					"maxclass" : "comment",
					"numinlets" : 1,
					"numoutlets" : 0,
					"patching_rect" : [ 196.0, 367.0, 46.0, 20.0 ],
					"presentation" : 1,
					"presentation_rect" : [ 115.0, 1.0, 41.0, 20.0 ],
					"text" : "user1"
				}

			}
, 			{
				"box" : 				{
					"id" : "obj-21",
					"maxclass" : "newobj",
					"numinlets" : 1,
					"numoutlets" : 3,
					"outlettype" : [ "", "", "" ],
					"patching_rect" : [ 1015.5, 107.0, 382.0, 22.0 ],
					"saved_object_attributes" : 					{
						"initial" : [ 1.0 ],
						"parameter_enable" : 0,
						"parameter_mappable" : 0
					}
,
					"text" : "pattr audiospeed-user2 @bindto sound-player-user2::speed @initial 1.",
					"varname" : "audiospeed-user2"
				}

			}
, 			{
				"box" : 				{
					"id" : "obj-20",
					"maxclass" : "newobj",
					"numinlets" : 1,
					"numoutlets" : 3,
					"outlettype" : [ "", "", "" ],
					"patching_rect" : [ 282.25, 44.0, 219.0, 22.0 ],
					"restore" : [ -70.0 ],
					"saved_object_attributes" : 					{
						"parameter_enable" : 0,
						"parameter_mappable" : 0
					}
,
					"text" : "pattr gain-user2 @bindto livegain-user2",
					"varname" : "gain-user2[1]"
				}

			}
, 			{
				"box" : 				{
					"id" : "obj-19",
					"maxclass" : "newobj",
					"numinlets" : 1,
					"numoutlets" : 3,
					"outlettype" : [ "", "", "" ],
					"patching_rect" : [ 282.25, 68.0, 311.0, 22.0 ],
					"saved_object_attributes" : 					{
						"initial" : [ "00_.wav" ],
						"parameter_enable" : 0,
						"parameter_mappable" : 0
					}
,
					"text" : "pattr file-user2 @bindto file-menu-user2 @initial 00_.wav",
					"varname" : "file-user2"
				}

			}
, 			{
				"box" : 				{
					"id" : "obj-17",
					"maxclass" : "newobj",
					"numinlets" : 2,
					"numoutlets" : 1,
					"outlettype" : [ "signal" ],
					"patching_rect" : [ 655.0, 605.0, 29.5, 22.0 ],
					"text" : "+~"
				}

			}
, 			{
				"box" : 				{
					"id" : "obj-15",
					"maxclass" : "newobj",
					"numinlets" : 2,
					"numoutlets" : 1,
					"outlettype" : [ "signal" ],
					"patching_rect" : [ 686.5, 605.0, 29.5, 22.0 ],
					"text" : "+~"
				}

			}
, 			{
				"box" : 				{
					"fontname" : "Arial",
					"fontsize" : 13.0,
					"id" : "obj-12",
					"maxclass" : "newobj",
					"numinlets" : 2,
					"numoutlets" : 3,
					"outlettype" : [ "signal", "signal", "bang" ],
					"patching_rect" : [ 113.0, 472.0, 113.0, 23.0 ],
					"saved_object_attributes" : 					{
						"basictuning" : 440,
						"followglobaltempo" : 0,
						"formantcorrection" : 0,
						"mode" : "basic",
						"originallength" : [ 206.659999999999968, "ticks" ],
						"originaltempo" : 120.0,
						"pitchcorrection" : 0,
						"quality" : "basic",
						"timestretch" : [ 0 ]
					}
,
					"text" : "sfplay~ 2 @loop 1",
					"varname" : "sound-player-user1"
				}

			}
, 			{
				"box" : 				{
					"fontname" : "Arial",
					"fontsize" : 13.0,
					"id" : "obj-13",
					"maxclass" : "message",
					"numinlets" : 2,
					"numoutlets" : 1,
					"outlettype" : [ "" ],
					"patching_rect" : [ 63.0, 442.0, 40.0, 23.0 ],
					"text" : "open"
				}

			}
, 			{
				"box" : 				{
					"id" : "obj-9",
					"maxclass" : "message",
					"numinlets" : 2,
					"numoutlets" : 1,
					"outlettype" : [ "" ],
					"patching_rect" : [ 113.0, 367.0, 65.0, 22.0 ],
					"text" : "open $1, 1"
				}

			}
, 			{
				"box" : 				{
					"attr" : "autopopulate",
					"id" : "obj-11",
					"maxclass" : "attrui",
					"numinlets" : 1,
					"numoutlets" : 1,
					"outlettype" : [ "" ],
					"patching_rect" : [ 72.5, 296.0, 150.0, 22.0 ]
				}

			}
, 			{
				"box" : 				{
					"id" : "obj-2",
					"maxclass" : "newobj",
					"numinlets" : 1,
					"numoutlets" : 3,
					"outlettype" : [ "", "", "" ],
					"patching_rect" : [ 937.0, 68.0, 382.0, 22.0 ],
					"saved_object_attributes" : 					{
						"initial" : [ 1.0 ],
						"parameter_enable" : 0,
						"parameter_mappable" : 0
					}
,
					"text" : "pattr audiospeed-user1 @bindto sound-player-user1::speed @initial 1.",
					"varname" : "audiospeed-user1"
				}

			}
, 			{
				"box" : 				{
					"id" : "obj-7",
					"maxclass" : "newobj",
					"numinlets" : 1,
					"numoutlets" : 3,
					"outlettype" : [ "", "", "" ],
					"patching_rect" : [ 602.25, 147.0, 219.0, 22.0 ],
					"restore" : [ -70.0 ],
					"saved_object_attributes" : 					{
						"parameter_enable" : 0,
						"parameter_mappable" : 0
					}
,
					"text" : "pattr gain-user1 @bindto livegain-user1",
					"varname" : "gain-user1"
				}

			}
, 			{
				"box" : 				{
					"id" : "obj-10",
					"maxclass" : "newobj",
					"numinlets" : 4,
					"numoutlets" : 0,
					"patching_rect" : [ 655.0, 749.0, 113.499999999999886, 22.0 ],
					"text" : "dac~ 1 2 3 4",
					"varname" : "dac"
				}

			}
, 			{
				"box" : 				{
					"fontsize" : 12.0,
					"id" : "obj-5",
					"lastchannelcount" : 0,
					"maxclass" : "live.gain~",
					"numinlets" : 2,
					"numoutlets" : 5,
					"orientation" : 1,
					"outlettype" : [ "signal", "signal", "", "float", "list" ],
					"parameter_enable" : 1,
					"patching_rect" : [ 400.5, 512.0, 129.0, 39.0 ],
					"presentation" : 1,
					"presentation_rect" : [ 144.0, 71.0, 136.0, 39.0 ],
					"saved_attribute_attributes" : 					{
						"valueof" : 						{
							"parameter_mmin" : -70.0,
							"parameter_longname" : "live.gain~[3]",
							"parameter_initial_enable" : 1,
							"parameter_mmax" : 6.0,
							"parameter_initial" : [ -70 ],
							"parameter_shortname" : "live.gain~",
							"parameter_type" : 0,
							"parameter_unitstyle" : 4
						}

					}
,
					"showname" : 0,
					"varname" : "livegain-user2"
				}

			}
, 			{
				"box" : 				{
					"fontname" : "Arial",
					"fontsize" : 13.0,
					"id" : "obj-4",
					"maxclass" : "newobj",
					"numinlets" : 2,
					"numoutlets" : 3,
					"outlettype" : [ "signal", "signal", "bang" ],
					"patching_rect" : [ 401.0, 473.0, 113.0, 23.0 ],
					"saved_object_attributes" : 					{
						"basictuning" : 440,
						"followglobaltempo" : 0,
						"formantcorrection" : 0,
						"mode" : "basic",
						"originallength" : [ 206.659999999999968, "ticks" ],
						"originaltempo" : 120.0,
						"pitchcorrection" : 0,
						"quality" : "basic",
						"timestretch" : [ 0 ]
					}
,
					"text" : "sfplay~ 2 @loop 1",
					"varname" : "sound-player-user2"
				}

			}
, 			{
				"box" : 				{
					"fontname" : "Arial",
					"fontsize" : 13.0,
					"id" : "obj-41",
					"maxclass" : "message",
					"numinlets" : 2,
					"numoutlets" : 1,
					"outlettype" : [ "" ],
					"patching_rect" : [ 348.0, 443.0, 40.0, 23.0 ],
					"text" : "open"
				}

			}
, 			{
				"box" : 				{
					"id" : "obj-68",
					"maxclass" : "comment",
					"numinlets" : 1,
					"numoutlets" : 0,
					"patching_rect" : [ 117.0, 29.0, 150.0, 20.0 ],
					"presentation" : 1,
					"presentation_rect" : [ 6.0, 1.0, 132.0, 20.0 ],
					"text" : "f3.int-sndplayer"
				}

			}
, 			{
				"box" : 				{
					"id" : "obj-52",
					"maxclass" : "newobj",
					"numinlets" : 1,
					"numoutlets" : 3,
					"outlettype" : [ "", "", "" ],
					"patching_rect" : [ 282.25, 20.0, 311.0, 22.0 ],
					"saved_object_attributes" : 					{
						"initial" : [ "00_.wav" ],
						"parameter_enable" : 0,
						"parameter_mappable" : 0
					}
,
					"text" : "pattr file-user1 @bindto file-menu-user1 @initial 00_.wav",
					"varname" : "file-user1"
				}

			}
, 			{
				"box" : 				{
					"id" : "obj-43",
					"maxclass" : "newobj",
					"numinlets" : 1,
					"numoutlets" : 2,
					"outlettype" : [ "", "" ],
					"patching_rect" : [ 26.0, 76.0, 55.0, 22.0 ],
					"text" : "pattrhub"
				}

			}
, 			{
				"box" : 				{
					"comment" : "Pattr Messages In",
					"id" : "obj-42",
					"index" : 0,
					"maxclass" : "inlet",
					"numinlets" : 0,
					"numoutlets" : 1,
					"outlettype" : [ "" ],
					"patching_rect" : [ 26.0, 36.0, 30.0, 30.0 ]
				}

			}
, 			{
				"box" : 				{
					"id" : "obj-8",
					"maxclass" : "message",
					"numinlets" : 2,
					"numoutlets" : 1,
					"outlettype" : [ "" ],
					"patching_rect" : [ 402.0, 367.0, 65.0, 22.0 ],
					"text" : "open $1, 1"
				}

			}
, 			{
				"box" : 				{
					"angle" : 270.0,
					"background" : 1,
					"bgcolor" : [ 0.439216, 0.74902, 0.254902, 1.0 ],
					"border" : 1,
					"bordercolor" : [ 0.0, 0.0, 0.0, 1.0 ],
					"id" : "obj-66",
					"maxclass" : "panel",
					"mode" : 0,
					"numinlets" : 1,
					"numoutlets" : 0,
					"patching_rect" : [ 176.25, 52.0, 43.0, 42.0 ],
					"presentation" : 1,
					"presentation_rect" : [ 2.0, 1.0, 707.0, 20.0 ],
					"proportion" : 0.39,
					"rounded" : 0
				}

			}
, 			{
				"box" : 				{
					"angle" : 270.0,
					"background" : 1,
					"bgcolor" : [ 0.290196, 0.309804, 0.301961, 0.0 ],
					"border" : 1,
					"bordercolor" : [ 0.0, 0.0, 0.0, 1.0 ],
					"id" : "obj-61",
					"maxclass" : "panel",
					"mode" : 0,
					"numinlets" : 1,
					"numoutlets" : 0,
					"patching_rect" : [ 176.25, 100.0, 43.0, 42.0 ],
					"presentation" : 1,
					"presentation_rect" : [ 2.0, 1.0, 707.0, 109.0 ],
					"proportion" : 0.39,
					"rounded" : 0
				}

			}
, 			{
				"box" : 				{
					"attr" : "autopopulate",
					"id" : "obj-6",
					"maxclass" : "attrui",
					"numinlets" : 1,
					"numoutlets" : 1,
					"outlettype" : [ "" ],
					"patching_rect" : [ 361.5, 297.0, 150.0, 22.0 ]
				}

			}
, 			{
				"box" : 				{
					"id" : "obj-3",
					"items" : [ "00_.mov", ",", "00_.wav", ",", "01_convers.wav", ",", "01_convers2.wav", ",", "01_linedrone.wav", ",", "01_linelong.wav", ",", "01_linesynth.wav", ",", "01_music.wav", ",", "01_travel.wav", ",", "01_voice.wav", ",", "02_convers.wav", ",", "02_intro.wav", ",", "02_music.wav", ",", "02_travel.wav", ",", "02_voice.wav", ",", "02_wave.wav", ",", "02_wave2.wav", ",", "02_wave3.wav", ",", "02_wave4.wav", ",", "03_convers.wav", ",", "03_convers2.wav", ",", "03_music2.wav", ",", "03_musicA.wav", ",", "03_musicB.wav", ",", "03_travel.wav", ",", "03_voice2.wav", ",", "04_music.wav", ",", "04_plane.wav", ",", "04_plane1.wav", ",", "04_plane2.wav", ",", "04_plane3.wav", ",", "04_plane4.wav", ",", "04_travel.wav", ",", "04_voice.wav", ",", "05_danceloop.wav", ",", "05_danceloop2.wav", ",", "05_interact1.wav", ",", "05_interact1b.wav", ",", "05_interact2.wav", ",", "05_interact2b.wav", ",", "05_interact3.wav", ",", "05_interact3b.wav", ",", "05_interact4.wav", ",", "05_interact4b.wav", ",", "05_music.wav", ",", "05_music1.wav", ",", "05_travel.wav", ",", "05_travel2.wav", ",", "05_travel2b.wav", ",", "05_voice.wav", ",", "05_voice1.wav", ",", "06_music_notravel.wav", ",", "06_voice.wav", ",", "07_end.wav", ",", "bigbang.mov", ",", "cloudtunnel.mp4", ",", "color_scanloop.mp4", ",", "dance_color_loop.mov", ",", "dance_color_loop2.mov", ",", "dance_colorwheel1.mov", ",", "dance_colorwheel2.mov", ",", "fire_vert.mp4", ",", "fire_vert2.mp4", ",", "roof.png", ",", "rot.mp4", ",", "rot2.mp4", ",", "rot3.mp4", ",", "rotate.mp4", ",", "scottland.mp4", ",", "speedstars2.mov", ",", "speeedstars.mov", ",", "spiral.mp4", ",", "spiral2.mp4", ",", "spiralA.mp4", ",", "spiralB.mp4", ",", "star_anim100.mp4", ",", "star_loop1.mov", ",", "star_loop2.mov", ",", "stars_anim.mp4", ",", "stars_by100.mov", ",", "stars_by200.mov", ",", "stars_by_glow300.mov", ",", "streets.mp4", ",", "test.mov", ",", "tulips.mp4", ",", "tulips3.mp4", ",", "tulips4.mp4", ",", "tv-stripes.mp4", ",", "vis_arrow.png", ",", "wave1.mp4", ",", "wave_end.mp4", ",", "wave_syphon.mp4", ",", "windmill.mp4" ],
					"maxclass" : "umenu",
					"numinlets" : 1,
					"numoutlets" : 3,
					"outlettype" : [ "int", "", "" ],
					"parameter_enable" : 0,
					"patching_rect" : [ 72.5, 326.0, 100.0, 22.0 ],
					"pattrmode" : 1,
					"prefix" : "chrispobo2:/Users/cz/Documents/Max 8/Projects/Forest-3/f3-effects/media/",
					"presentation" : 1,
					"presentation_rect" : [ 6.0, 23.0, 136.0, 22.0 ],
					"varname" : "file-menu-user1"
				}

			}
, 			{
				"box" : 				{
					"id" : "obj-48",
					"items" : [ "00_.mov", ",", "00_.wav", ",", "01_convers.wav", ",", "01_convers2.wav", ",", "01_linedrone.wav", ",", "01_linelong.wav", ",", "01_linesynth.wav", ",", "01_music.wav", ",", "01_travel.wav", ",", "01_voice.wav", ",", "02_convers.wav", ",", "02_intro.wav", ",", "02_music.wav", ",", "02_travel.wav", ",", "02_voice.wav", ",", "02_wave.wav", ",", "02_wave2.wav", ",", "02_wave3.wav", ",", "02_wave4.wav", ",", "03_convers.wav", ",", "03_convers2.wav", ",", "03_music2.wav", ",", "03_musicA.wav", ",", "03_musicB.wav", ",", "03_travel.wav", ",", "03_voice2.wav", ",", "04_music.wav", ",", "04_plane.wav", ",", "04_plane1.wav", ",", "04_plane2.wav", ",", "04_plane3.wav", ",", "04_plane4.wav", ",", "04_travel.wav", ",", "04_voice.wav", ",", "05_danceloop.wav", ",", "05_danceloop2.wav", ",", "05_interact1.wav", ",", "05_interact1b.wav", ",", "05_interact2.wav", ",", "05_interact2b.wav", ",", "05_interact3.wav", ",", "05_interact3b.wav", ",", "05_interact4.wav", ",", "05_interact4b.wav", ",", "05_music.wav", ",", "05_music1.wav", ",", "05_travel.wav", ",", "05_travel2.wav", ",", "05_travel2b.wav", ",", "05_voice.wav", ",", "05_voice1.wav", ",", "06_music_notravel.wav", ",", "06_voice.wav", ",", "07_end.wav", ",", "bigbang.mov", ",", "cloudtunnel.mp4", ",", "color_scanloop.mp4", ",", "dance_color_loop.mov", ",", "dance_color_loop2.mov", ",", "dance_colorwheel1.mov", ",", "dance_colorwheel2.mov", ",", "fire_vert.mp4", ",", "fire_vert2.mp4", ",", "roof.png", ",", "rot.mp4", ",", "rot2.mp4", ",", "rot3.mp4", ",", "rotate.mp4", ",", "scottland.mp4", ",", "speedstars2.mov", ",", "speeedstars.mov", ",", "spiral.mp4", ",", "spiral2.mp4", ",", "spiralA.mp4", ",", "spiralB.mp4", ",", "star_anim100.mp4", ",", "star_loop1.mov", ",", "star_loop2.mov", ",", "stars_anim.mp4", ",", "stars_by100.mov", ",", "stars_by200.mov", ",", "stars_by_glow300.mov", ",", "streets.mp4", ",", "test.mov", ",", "tulips.mp4", ",", "tulips3.mp4", ",", "tulips4.mp4", ",", "tv-stripes.mp4", ",", "vis_arrow.png", ",", "wave1.mp4", ",", "wave_end.mp4", ",", "wave_syphon.mp4", ",", "windmill.mp4" ],
					"maxclass" : "umenu",
					"numinlets" : 1,
					"numoutlets" : 3,
					"outlettype" : [ "int", "", "" ],
					"parameter_enable" : 0,
					"patching_rect" : [ 361.5, 327.0, 100.0, 22.0 ],
					"pattrmode" : 1,
					"prefix" : "chrispobo2:/Users/cz/Documents/Max 8/Projects/Forest-3/f3-effects/media/",
					"presentation" : 1,
					"presentation_rect" : [ 144.0, 23.0, 137.0, 22.0 ],
					"varname" : "file-menu-user2"
				}

			}
, 			{
				"box" : 				{
					"bordercolor" : [ 0.501961, 0.501961, 0.501961, 0.0 ],
					"id" : "obj-51",
					"ignoreclick" : 1,
					"maxclass" : "dropfile",
					"numinlets" : 1,
					"numoutlets" : 2,
					"outlettype" : [ "", "" ],
					"patching_rect" : [ 298.0, 338.0, 33.0, 42.0 ],
					"presentation" : 1,
					"presentation_rect" : [ 2.0, 1.0, 140.0, 109.0 ]
				}

			}
, 			{
				"box" : 				{
					"bordercolor" : [ 0.501961, 0.501961, 0.501961, 0.0 ],
					"id" : "obj-18",
					"ignoreclick" : 1,
					"maxclass" : "dropfile",
					"numinlets" : 1,
					"numoutlets" : 2,
					"outlettype" : [ "", "" ],
					"patching_rect" : [ 22.0, 354.0, 33.0, 42.0 ],
					"presentation" : 1,
					"presentation_rect" : [ 144.0, 1.0, 143.0, 109.0 ]
				}

			}
, 			{
				"box" : 				{
					"bordercolor" : [ 0.501961, 0.501961, 0.501961, 0.0 ],
					"id" : "obj-56",
					"ignoreclick" : 1,
					"maxclass" : "dropfile",
					"numinlets" : 1,
					"numoutlets" : 2,
					"outlettype" : [ "", "" ],
					"patching_rect" : [ 565.0, 338.0, 33.0, 42.0 ],
					"presentation" : 1,
					"presentation_rect" : [ 284.5, 1.0, 139.0, 109.0 ]
				}

			}
, 			{
				"box" : 				{
					"attr" : "speed",
					"id" : "obj-24",
					"maxclass" : "attrui",
					"numinlets" : 1,
					"numoutlets" : 1,
					"outlettype" : [ "" ],
					"patching_rect" : [ 401.0, 436.0, 150.0, 22.0 ],
					"presentation" : 1,
					"presentation_rect" : [ 144.0, 47.0, 136.0, 22.0 ]
				}

			}
, 			{
				"box" : 				{
					"attr" : "speed",
					"id" : "obj-25",
					"maxclass" : "attrui",
					"numinlets" : 1,
					"numoutlets" : 1,
					"outlettype" : [ "" ],
					"patching_rect" : [ 113.0, 436.0, 150.0, 22.0 ],
					"presentation" : 1,
					"presentation_rect" : [ 6.0, 47.0, 136.0, 22.0 ]
				}

			}
 ],
		"lines" : [ 			{
				"patchline" : 				{
					"destination" : [ "obj-40", 0 ],
					"source" : [ "obj-1", 0 ]
				}

			}
, 			{
				"patchline" : 				{
					"destination" : [ "obj-3", 0 ],
					"source" : [ "obj-11", 0 ]
				}

			}
, 			{
				"patchline" : 				{
					"destination" : [ "obj-27", 1 ],
					"source" : [ "obj-12", 1 ]
				}

			}
, 			{
				"patchline" : 				{
					"destination" : [ "obj-27", 0 ],
					"source" : [ "obj-12", 0 ]
				}

			}
, 			{
				"patchline" : 				{
					"destination" : [ "obj-12", 0 ],
					"source" : [ "obj-13", 0 ]
				}

			}
, 			{
				"patchline" : 				{
					"destination" : [ "obj-7", 0 ],
					"source" : [ "obj-14", 0 ]
				}

			}
, 			{
				"patchline" : 				{
					"destination" : [ "obj-64", 0 ],
					"source" : [ "obj-15", 0 ]
				}

			}
, 			{
				"patchline" : 				{
					"destination" : [ "obj-63", 0 ],
					"source" : [ "obj-17", 0 ]
				}

			}
, 			{
				"patchline" : 				{
					"destination" : [ "obj-9", 0 ],
					"source" : [ "obj-18", 0 ]
				}

			}
, 			{
				"patchline" : 				{
					"destination" : [ "obj-11", 0 ],
					"order" : 4,
					"source" : [ "obj-23", 0 ]
				}

			}
, 			{
				"patchline" : 				{
					"destination" : [ "obj-39", 0 ],
					"order" : 1,
					"source" : [ "obj-23", 0 ]
				}

			}
, 			{
				"patchline" : 				{
					"destination" : [ "obj-59", 0 ],
					"order" : 2,
					"source" : [ "obj-23", 0 ]
				}

			}
, 			{
				"patchline" : 				{
					"destination" : [ "obj-6", 0 ],
					"order" : 3,
					"source" : [ "obj-23", 0 ]
				}

			}
, 			{
				"patchline" : 				{
					"destination" : [ "obj-74", 0 ],
					"order" : 0,
					"source" : [ "obj-23", 0 ]
				}

			}
, 			{
				"patchline" : 				{
					"destination" : [ "obj-4", 0 ],
					"source" : [ "obj-24", 0 ]
				}

			}
, 			{
				"patchline" : 				{
					"destination" : [ "obj-12", 0 ],
					"source" : [ "obj-25", 0 ]
				}

			}
, 			{
				"patchline" : 				{
					"destination" : [ "obj-44", 0 ],
					"source" : [ "obj-26", 0 ]
				}

			}
, 			{
				"patchline" : 				{
					"destination" : [ "obj-15", 1 ],
					"source" : [ "obj-27", 1 ]
				}

			}
, 			{
				"patchline" : 				{
					"destination" : [ "obj-17", 1 ],
					"source" : [ "obj-27", 0 ]
				}

			}
, 			{
				"patchline" : 				{
					"destination" : [ "obj-9", 0 ],
					"source" : [ "obj-3", 1 ]
				}

			}
, 			{
				"patchline" : 				{
					"destination" : [ "obj-77", 1 ],
					"source" : [ "obj-34", 0 ]
				}

			}
, 			{
				"patchline" : 				{
					"destination" : [ "obj-78", 1 ],
					"source" : [ "obj-34", 1 ]
				}

			}
, 			{
				"patchline" : 				{
					"destination" : [ "obj-34", 1 ],
					"source" : [ "obj-35", 1 ]
				}

			}
, 			{
				"patchline" : 				{
					"destination" : [ "obj-34", 0 ],
					"source" : [ "obj-35", 0 ]
				}

			}
, 			{
				"patchline" : 				{
					"destination" : [ "obj-35", 0 ],
					"source" : [ "obj-36", 0 ]
				}

			}
, 			{
				"patchline" : 				{
					"destination" : [ "obj-38", 0 ],
					"source" : [ "obj-37", 1 ]
				}

			}
, 			{
				"patchline" : 				{
					"destination" : [ "obj-35", 0 ],
					"source" : [ "obj-38", 0 ]
				}

			}
, 			{
				"patchline" : 				{
					"destination" : [ "obj-37", 0 ],
					"source" : [ "obj-39", 0 ]
				}

			}
, 			{
				"patchline" : 				{
					"destination" : [ "obj-5", 1 ],
					"source" : [ "obj-4", 1 ]
				}

			}
, 			{
				"patchline" : 				{
					"destination" : [ "obj-5", 0 ],
					"source" : [ "obj-4", 0 ]
				}

			}
, 			{
				"patchline" : 				{
					"destination" : [ "obj-35", 0 ],
					"source" : [ "obj-40", 0 ]
				}

			}
, 			{
				"patchline" : 				{
					"destination" : [ "obj-4", 0 ],
					"source" : [ "obj-41", 0 ]
				}

			}
, 			{
				"patchline" : 				{
					"destination" : [ "obj-43", 0 ],
					"source" : [ "obj-42", 0 ]
				}

			}
, 			{
				"patchline" : 				{
					"destination" : [ "obj-14", 0 ],
					"source" : [ "obj-44", 0 ]
				}

			}
, 			{
				"patchline" : 				{
					"destination" : [ "obj-38", 0 ],
					"source" : [ "obj-45", 0 ]
				}

			}
, 			{
				"patchline" : 				{
					"destination" : [ "obj-24", 0 ],
					"source" : [ "obj-46", 0 ]
				}

			}
, 			{
				"patchline" : 				{
					"destination" : [ "obj-25", 0 ],
					"source" : [ "obj-47", 0 ]
				}

			}
, 			{
				"patchline" : 				{
					"destination" : [ "obj-8", 0 ],
					"source" : [ "obj-48", 1 ]
				}

			}
, 			{
				"patchline" : 				{
					"destination" : [ "obj-62", 0 ],
					"source" : [ "obj-49", 0 ]
				}

			}
, 			{
				"patchline" : 				{
					"destination" : [ "obj-15", 0 ],
					"source" : [ "obj-5", 1 ]
				}

			}
, 			{
				"patchline" : 				{
					"destination" : [ "obj-17", 0 ],
					"source" : [ "obj-5", 0 ]
				}

			}
, 			{
				"patchline" : 				{
					"destination" : [ "obj-8", 0 ],
					"source" : [ "obj-51", 0 ]
				}

			}
, 			{
				"patchline" : 				{
					"destination" : [ "obj-63", 1 ],
					"source" : [ "obj-53", 0 ]
				}

			}
, 			{
				"patchline" : 				{
					"destination" : [ "obj-64", 1 ],
					"source" : [ "obj-53", 1 ]
				}

			}
, 			{
				"patchline" : 				{
					"destination" : [ "obj-53", 1 ],
					"source" : [ "obj-54", 1 ]
				}

			}
, 			{
				"patchline" : 				{
					"destination" : [ "obj-53", 0 ],
					"source" : [ "obj-54", 0 ]
				}

			}
, 			{
				"patchline" : 				{
					"destination" : [ "obj-54", 0 ],
					"source" : [ "obj-55", 0 ]
				}

			}
, 			{
				"patchline" : 				{
					"destination" : [ "obj-58", 0 ],
					"source" : [ "obj-56", 0 ]
				}

			}
, 			{
				"patchline" : 				{
					"destination" : [ "obj-58", 0 ],
					"source" : [ "obj-57", 1 ]
				}

			}
, 			{
				"patchline" : 				{
					"destination" : [ "obj-54", 0 ],
					"source" : [ "obj-58", 0 ]
				}

			}
, 			{
				"patchline" : 				{
					"destination" : [ "obj-57", 0 ],
					"source" : [ "obj-59", 0 ]
				}

			}
, 			{
				"patchline" : 				{
					"destination" : [ "obj-48", 0 ],
					"source" : [ "obj-6", 0 ]
				}

			}
, 			{
				"patchline" : 				{
					"destination" : [ "obj-2", 0 ],
					"source" : [ "obj-60", 0 ]
				}

			}
, 			{
				"patchline" : 				{
					"destination" : [ "obj-21", 0 ],
					"source" : [ "obj-60", 1 ]
				}

			}
, 			{
				"patchline" : 				{
					"destination" : [ "obj-28", 0 ],
					"source" : [ "obj-60", 2 ]
				}

			}
, 			{
				"patchline" : 				{
					"destination" : [ "obj-54", 0 ],
					"source" : [ "obj-62", 0 ]
				}

			}
, 			{
				"patchline" : 				{
					"destination" : [ "obj-77", 0 ],
					"source" : [ "obj-63", 0 ]
				}

			}
, 			{
				"patchline" : 				{
					"destination" : [ "obj-78", 0 ],
					"source" : [ "obj-64", 0 ]
				}

			}
, 			{
				"patchline" : 				{
					"destination" : [ "obj-75", 0 ],
					"source" : [ "obj-65", 0 ]
				}

			}
, 			{
				"patchline" : 				{
					"destination" : [ "obj-79", 1 ],
					"source" : [ "obj-69", 0 ]
				}

			}
, 			{
				"patchline" : 				{
					"destination" : [ "obj-80", 1 ],
					"source" : [ "obj-69", 1 ]
				}

			}
, 			{
				"patchline" : 				{
					"destination" : [ "obj-69", 1 ],
					"source" : [ "obj-70", 1 ]
				}

			}
, 			{
				"patchline" : 				{
					"destination" : [ "obj-69", 0 ],
					"source" : [ "obj-70", 0 ]
				}

			}
, 			{
				"patchline" : 				{
					"destination" : [ "obj-70", 0 ],
					"source" : [ "obj-71", 0 ]
				}

			}
, 			{
				"patchline" : 				{
					"destination" : [ "obj-73", 0 ],
					"source" : [ "obj-72", 1 ]
				}

			}
, 			{
				"patchline" : 				{
					"destination" : [ "obj-70", 0 ],
					"source" : [ "obj-73", 0 ]
				}

			}
, 			{
				"patchline" : 				{
					"destination" : [ "obj-72", 0 ],
					"source" : [ "obj-74", 0 ]
				}

			}
, 			{
				"patchline" : 				{
					"destination" : [ "obj-70", 0 ],
					"source" : [ "obj-75", 0 ]
				}

			}
, 			{
				"patchline" : 				{
					"destination" : [ "obj-73", 0 ],
					"source" : [ "obj-76", 0 ]
				}

			}
, 			{
				"patchline" : 				{
					"destination" : [ "obj-79", 0 ],
					"source" : [ "obj-77", 0 ]
				}

			}
, 			{
				"patchline" : 				{
					"destination" : [ "obj-80", 0 ],
					"source" : [ "obj-78", 0 ]
				}

			}
, 			{
				"patchline" : 				{
					"destination" : [ "obj-10", 0 ],
					"source" : [ "obj-79", 0 ]
				}

			}
, 			{
				"patchline" : 				{
					"destination" : [ "obj-4", 0 ],
					"source" : [ "obj-8", 0 ]
				}

			}
, 			{
				"patchline" : 				{
					"destination" : [ "obj-10", 1 ],
					"source" : [ "obj-80", 0 ]
				}

			}
, 			{
				"patchline" : 				{
					"destination" : [ "obj-12", 0 ],
					"source" : [ "obj-9", 0 ]
				}

			}
 ],
		"parameters" : 		{
			"obj-27" : [ "live.gain~[5]", "live.gain~", 0 ],
			"obj-34" : [ "live.gain~[6]", "live.gain~", 0 ],
			"obj-53" : [ "live.gain~[4]", "live.gain~", 0 ],
			"obj-5" : [ "live.gain~[3]", "live.gain~", 0 ],
			"obj-69" : [ "live.gain~[7]", "live.gain~", 0 ],
			"parameterbanks" : 			{

			}

		}
,
		"dependency_cache" : [  ],
		"autosave" : 0,
		"styles" : [ 			{
				"name" : "AudioStatus_Menu",
				"default" : 				{
					"bgfillcolor" : 					{
						"type" : "color",
						"color" : [ 0.294118, 0.313726, 0.337255, 1 ],
						"color1" : [ 0.454902, 0.462745, 0.482353, 0.0 ],
						"color2" : [ 0.290196, 0.309804, 0.301961, 1.0 ],
						"angle" : 270.0,
						"proportion" : 0.39,
						"autogradient" : 0
					}

				}
,
				"parentstyle" : "",
				"multi" : 0
			}
, 			{
				"name" : "ksliderWhite",
				"default" : 				{
					"color" : [ 1.0, 1.0, 1.0, 1.0 ]
				}
,
				"parentstyle" : "",
				"multi" : 0
			}
, 			{
				"name" : "newobjBlue-1",
				"default" : 				{
					"accentcolor" : [ 0.317647, 0.654902, 0.976471, 1.0 ]
				}
,
				"parentstyle" : "",
				"multi" : 0
			}
, 			{
				"name" : "newobjBrown-1",
				"default" : 				{
					"accentcolor" : [ 0.654902, 0.572549, 0.376471, 1.0 ]
				}
,
				"parentstyle" : "",
				"multi" : 0
			}
, 			{
				"name" : "newobjCyan-1",
				"default" : 				{
					"accentcolor" : [ 0.029546, 0.773327, 0.821113, 1.0 ]
				}
,
				"parentstyle" : "",
				"multi" : 0
			}
, 			{
				"name" : "newobjGreen-1",
				"default" : 				{
					"accentcolor" : [ 0.0, 0.533333, 0.168627, 1.0 ]
				}
,
				"parentstyle" : "",
				"multi" : 0
			}
, 			{
				"name" : "newobjYellow-1",
				"default" : 				{
					"fontsize" : [ 12.059008 ],
					"accentcolor" : [ 0.82517, 0.78181, 0.059545, 1.0 ]
				}
,
				"parentstyle" : "",
				"multi" : 0
			}
, 			{
				"name" : "numberGold-1",
				"default" : 				{
					"accentcolor" : [ 0.764706, 0.592157, 0.101961, 1.0 ]
				}
,
				"parentstyle" : "",
				"multi" : 0
			}
, 			{
				"name" : "rsliderGold",
				"default" : 				{
					"bgcolor" : [ 0.764706, 0.592157, 0.101961, 1.0 ],
					"color" : [ 0.646639, 0.821777, 0.854593, 1.0 ]
				}
,
				"parentstyle" : "",
				"multi" : 0
			}
 ]
	}

}
